  0
SECTION
  2
HEADER
  9
$ACADVER
  1
AC1032
  9
$ACADMAINTVER
 90
4
  9
$DWGCODEPAGE
  3
ANSI_1252
  9
$LASTSAVEDBY
  1
ezdxf
  9
$REQUIREDVERSIONS
160
0
  9
$INSBASE
 10
0.0
 20
0.0
 30
0.0
  9
$EXTMIN
 10
1e+20
 20
1e+20
 30
1e+20
  9
$EXTMAX
 10
-1e+20
 20
-1e+20
 30
-1e+20
  9
$LIMMIN
 10
0.0
 20
0.0
  9
$LIMMAX
 10
420.0
 20
297.0
  9
$ORTHOMODE
 70
0
  9
$REGENMODE
 70
1
  9
$FILLMODE
 70
1
  9
$QTEXTMODE
 70
0
  9
$MIRRTEXT
 70
1
  9
$LTSCALE
 40
1.0
  9
$ATTMODE
 70
1
  9
$TEXTSIZE
 40
2.5
  9
$TRACEWID
 40
1.0
  9
$TEXTSTYLE
  7
Standard
  9
$CLAYER
  8
0
  9
$CELTYPE
  6
ByLayer
  9
$CECOLOR
 62
256
  9
$CELTSCALE
 40
1.0
  9
$DISPSILH
 70
0
  9
$DIMSCALE
 40
1.0
  9
$DIMASZ
 40
2.5
  9
$DIMEXO
 40
0.625
  9
$DIMDLI
 40
3.75
  9
$DIMRND
 40
0.0
  9
$DIMDLE
 40
0.0
  9
$DIMEXE
 40
1.25
  9
$DIMTP
 40
0.0
  9
$DIMTM
 40
0.0
  9
$DIMTXT
 40
2.5
  9
$DIMCEN
 40
2.5
  9
$DIMTSZ
 40
0.0
  9
$DIMTOL
 70
0
  9
$DIMLIM
 70
0
  9
$DIMTIH
 70
0
  9
$DIMTOH
 70
0
  9
$DIMSE1
 70
0
  9
$DIMSE2
 70
0
  9
$DIMTAD
 70
1
  9
$DIMZIN
 70
8
  9
$DIMBLK
  1

  9
$DIMASO
 70
1
  9
$DIMSHO
 70
1
  9
$DIMPOST
  1

  9
$DIMAPOST
  1

  9
$DIMALT
 70
0
  9
$DIMALTD
 70
3
  9
$DIMALTF
 40
0.03937007874
  9
$DIMLFAC
 40
1.0
  9
$DIMTOFL
 70
1
  9
$DIMTVP
 40
0.0
  9
$DIMTIX
 70
0
  9
$DIMSOXD
 70
0
  9
$DIMSAH
 70
0
  9
$DIMBLK1
  1

  9
$DIMBLK2
  1

  9
$DIMSTYLE
  2
ISO-25
  9
$DIMCLRD
 70
0
  9
$DIMCLRE
 70
0
  9
$DIMCLRT
 70
0
  9
$DIMTFAC
 40
1.0
  9
$DIMGAP
 40
0.625
  9
$DIMJUST
 70
0
  9
$DIMSD1
 70
0
  9
$DIMSD2
 70
0
  9
$DIMTOLJ
 70
0
  9
$DIMTZIN
 70
8
  9
$DIMALTZ
 70
0
  9
$DIMALTTZ
 70
0
  9
$DIMUPT
 70
0
  9
$DIMDEC
 70
2
  9
$DIMTDEC
 70
2
  9
$DIMALTU
 70
2
  9
$DIMALTTD
 70
3
  9
$DIMTXSTY
  7
Standard
  9
$DIMAUNIT
 70
0
  9
$DIMADEC
 70
0
  9
$DIMALTRND
 40
0.0
  9
$DIMAZIN
 70
0
  9
$DIMDSEP
 70
44
  9
$DIMATFIT
 70
3
  9
$DIMFRAC
 70
0
  9
$DIMLDRBLK
  1

  9
$DIMLUNIT
 70
2
  9
$DIMLWD
 70
-2
  9
$DIMLWE
 70
-2
  9
$DIMTMOVE
 70
0
  9
$DIMFXL
 40
1.0
  9
$DIMFXLON
 70
0
  9
$DIMJOGANG
 40
0.785398163397
  9
$DIMTFILL
 70
0
  9
$DIMTFILLCLR
 70
0
  9
$DIMARCSYM
 70
0
  9
$DIMLTYPE
  6

  9
$DIMLTEX1
  6

  9
$DIMLTEX2
  6

  9
$DIMTXTDIRECTION
 70
0
  9
$LUNITS
 70
2
  9
$LUPREC
 70
4
  9
$SKETCHINC
 40
1.0
  9
$FILLETRAD
 40
10.0
  9
$AUNITS
 70
0
  9
$AUPREC
 70
2
  9
$MENU
  1
.
  9
$ELEVATION
 40
0.0
  9
$PELEVATION
 40
0.0
  9
$THICKNESS
 40
0.0
  9
$LIMCHECK
 70
0
  9
$CHAMFERA
 40
0.0
  9
$CHAMFERB
 40
0.0
  9
$CHAMFERC
 40
0.0
  9
$CHAMFERD
 40
0.0
  9
$SKPOLY
 70
0
  9
$TDCREATE
 40
2461198.7993055554
  9
$TDUCREATE
 40
2458532.153996898
  9
$TDUPDATE
 40
2461198.7993055554
  9
$TDUUPDATE
 40
2458532.1544311
  9
$TDINDWG
 40
0.0
  9
$TDUSRTIMER
 40
0.0
  9
$USRTIMER
 70
1
  9
$ANGBASE
 50
0.0
  9
$ANGDIR
 70
0
  9
$PDMODE
 70
0
  9
$PDSIZE
 40
0.0
  9
$PLINEWID
 40
0.0
  9
$SPLFRAME
 70
0
  9
$SPLINETYPE
 70
6
  9
$SPLINESEGS
 70
8
  9
$HANDSEED
  5
54
  9
$SURFTAB1
 70
6
  9
$SURFTAB2
 70
6
  9
$SURFTYPE
 70
6
  9
$SURFU
 70
6
  9
$SURFV
 70
6
  9
$UCSBASE
  2

  9
$UCSNAME
  2

  9
$UCSORG
 10
0.0
 20
0.0
 30
0.0
  9
$UCSXDIR
 10
1.0
 20
0.0
 30
0.0
  9
$UCSYDIR
 10
0.0
 20
1.0
 30
0.0
  9
$UCSORTHOREF
  2

  9
$UCSORTHOVIEW
 70
0
  9
$UCSORGTOP
 10
0.0
 20
0.0
 30
0.0
  9
$UCSORGBOTTOM
 10
0.0
 20
0.0
 30
0.0
  9
$UCSORGLEFT
 10
0.0
 20
0.0
 30
0.0
  9
$UCSORGRIGHT
 10
0.0
 20
0.0
 30
0.0
  9
$UCSORGFRONT
 10
0.0
 20
0.0
 30
0.0
  9
$UCSORGBACK
 10
0.0
 20
0.0
 30
0.0
  9
$PUCSBASE
  2

  9
$PUCSNAME
  2

  9
$PUCSORG
 10
0.0
 20
0.0
 30
0.0
  9
$PUCSXDIR
 10
1.0
 20
0.0
 30
0.0
  9
$PUCSYDIR
 10
0.0
 20
1.0
 30
0.0
  9
$PUCSORTHOREF
  2

  9
$PUCSORTHOVIEW
 70
0
  9
$PUCSORGTOP
 10
0.0
 20
0.0
 30
0.0
  9
$PUCSORGBOTTOM
 10
0.0
 20
0.0
 30
0.0
  9
$PUCSORGLEFT
 10
0.0
 20
0.0
 30
0.0
  9
$PUCSORGRIGHT
 10
0.0
 20
0.0
 30
0.0
  9
$PUCSORGFRONT
 10
0.0
 20
0.0
 30
0.0
  9
$PUCSORGBACK
 10
0.0
 20
0.0
 30
0.0
  9
$USERI1
 70
0
  9
$USERI2
 70
0
  9
$USERI3
 70
0
  9
$USERI4
 70
0
  9
$USERI5
 70
0
  9
$USERR1
 40
0.0
  9
$USERR2
 40
0.0
  9
$USERR3
 40
0.0
  9
$USERR4
 40
0.0
  9
$USERR5
 40
0.0
  9
$WORLDVIEW
 70
1
  9
$SHADEDGE
 70
3
  9
$SHADEDIF
 70
70
  9
$TILEMODE
 70
1
  9
$MAXACTVP
 70
64
  9
$PINSBASE
 10
0.0
 20
0.0
 30
0.0
  9
$PLIMCHECK
 70
0
  9
$PEXTMIN
 10
1e+20
 20
1e+20
 30
1e+20
  9
$PEXTMAX
 10
-1e+20
 20
-1e+20
 30
-1e+20
  9
$PLIMMIN
 10
0.0
 20
0.0
  9
$PLIMMAX
 10
420.0
 20
297.0
  9
$UNITMODE
 70
0
  9
$VISRETAIN
 70
1
  9
$PLINEGEN
 70
0
  9
$PSLTSCALE
 70
1
  9
$TREEDEPTH
 70
3020
  9
$CMLSTYLE
  2
Standard
  9
$CMLJUST
 70
0
  9
$CMLSCALE
 40
20.0
  9
$PROXYGRAPHICS
 70
1
  9
$MEASUREMENT
 70
1
  9
$CELWEIGHT
370
-1
  9
$ENDCAPS
280
0
  9
$JOINSTYLE
280
0
  9
$LWDISPLAY
290
0
  9
$INSUNITS
 70
4
  9
$HYPERLINKBASE
  1

  9
$STYLESHEET
  1

  9
$XEDIT
290
1
  9
$CEPSNTYPE
380
0
  9
$PSTYLEMODE
290
1
  9
$FINGERPRINTGUID
  2
{5A410DBC-0267-4924-AEB6-936F5632CCB2}
  9
$VERSIONGUID
  2
{281068AC-3300-48CD-9235-FB527FE4F3F7}
  9
$EXTNAMES
290
1
  9
$PSVPSCALE
 40
0.0
  9
$OLESTARTUP
290
0
  9
$SORTENTS
280
127
  9
$INDEXCTL
280
0
  9
$HIDETEXT
280
1
  9
$XCLIPFRAME
280
1
  9
$HALOGAP
280
0
  9
$OBSCOLOR
 70
257
  9
$OBSLTYPE
280
0
  9
$INTERSECTIONDISPLAY
280
0
  9
$INTERSECTIONCOLOR
 70
257
  9
$DIMASSOC
280
2
  9
$PROJECTNAME
  1

  9
$CAMERADISPLAY
290
0
  9
$LENSLENGTH
 40
50.0
  9
$CAMERAHEIGHT
 40
0.0
  9
$STEPSPERSEC
 40
24.0
  9
$STEPSIZE
 40
100.0
  9
$3DDWFPREC
 40
2.0
  9
$PSOLWIDTH
 40
0.005
  9
$PSOLHEIGHT
 40
0.08
  9
$LOFTANG1
 40
1.570796326795
  9
$LOFTANG2
 40
1.570796326795
  9
$LOFTMAG1
 40
0.0
  9
$LOFTMAG2
 40
0.0
  9
$LOFTPARAM
 70
7
  9
$LOFTNORMALS
280
1
  9
$LATITUDE
 40
37.795
  9
$LONGITUDE
 40
-122.394
  9
$NORTHDIRECTION
 40
0.0
  9
$TIMEZONE
 70
-8000
  9
$LIGHTGLYPHDISPLAY
280
1
  9
$TILEMODELIGHTSYNCH
280
1
  9
$CMATERIAL
347
20
  9
$SOLIDHIST
280
0
  9
$SHOWHIST
280
1
  9
$DWFFRAME
280
2
  9
$DGNFRAME
280
2
  9
$REALWORLDSCALE
290
1
  9
$INTERFERECOLOR
 62
256
  9
$CSHADOW
280
0
  9
$SHADOWPLANELOCATION
 40
0.0
  0
ENDSEC
  0
SECTION
  2
CLASSES
  0
CLASS
  1
ACDBDICTIONARYWDFLT
  2
AcDbDictionaryWithDefault
  3
ObjectDBX Classes
 90
0
 91
0
280
0
281
0
  0
CLASS
  1
SUN
  2
AcDbSun
  3
SCENEOE
 90
1153
 91
0
280
0
281
0
  0
CLASS
  1
VISUALSTYLE
  2
AcDbVisualStyle
  3
ObjectDBX Classes
 90
4095
 91
0
280
0
281
0
  0
CLASS
  1
MATERIAL
  2
AcDbMaterial
  3
ObjectDBX Classes
 90
1153
 91
0
280
0
281
0
  0
CLASS
  1
SCALE
  2
AcDbScale
  3
ObjectDBX Classes
 90
1153
 91
0
280
0
281
0
  0
CLASS
  1
TABLESTYLE
  2
AcDbTableStyle
  3
ObjectDBX Classes
 90
4095
 91
0
280
0
281
0
  0
CLASS
  1
MLEADERSTYLE
  2
AcDbMLeaderStyle
  3
ACDB_MLEADERSTYLE_CLASS
 90
4095
 91
0
280
0
281
0
  0
CLASS
  1
DICTIONARYVAR
  2
AcDbDictionaryVar
  3
ObjectDBX Classes
 90
0
 91
0
280
0
281
0
  0
CLASS
  1
CELLSTYLEMAP
  2
AcDbCellStyleMap
  3
ObjectDBX Classes
 90
1152
 91
0
280
0
281
0
  0
CLASS
  1
MENTALRAYRENDERSETTINGS
  2
AcDbMentalRayRenderSettings
  3
SCENEOE
 90
1024
 91
0
280
0
281
0
  0
CLASS
  1
ACDBDETAILVIEWSTYLE
  2
AcDbDetailViewStyle
  3
ObjectDBX Classes
 90
1025
 91
0
280
0
281
0
  0
CLASS
  1
ACDBSECTIONVIEWSTYLE
  2
AcDbSectionViewStyle
  3
ObjectDBX Classes
 90
1025
 91
0
280
0
281
0
  0
CLASS
  1
RASTERVARIABLES
  2
AcDbRasterVariables
  3
ISM
 90
0
 91
0
280
0
281
0
  0
CLASS
  1
ACDBPLACEHOLDER
  2
AcDbPlaceHolder
  3
ObjectDBX Classes
 90
0
 91
0
280
0
281
0
  0
CLASS
  1
LAYOUT
  2
AcDbLayout
  3
ObjectDBX Classes
 90
0
 91
0
280
0
281
0
  0
ENDSEC
  0
SECTION
  2
TABLES
  0
TABLE
  2
VPORT
  5
8
330
0
100
AcDbSymbolTable
 70
1
  0
VPORT
  5
23
330
8
100
AcDbSymbolTableRecord
100
AcDbViewportTableRecord
  2
*Active
 70
0
 10
0.0
 20
0.0
 11
1.0
 21
1.0
 12
0.0
 22
0.0
 13
0.0
 23
0.0
 14
0.5
 24
0.5
 15
0.5
 25
0.5
 16
0.0
 26
0.0
 36
1.0
 17
0.0
 27
0.0
 37
0.0
 40
1000.0
 41
1.34
 42
50.0
 43
0.0
 44
0.0
 50
0.0
 51
0.0
 71
0
 72
1000
 73
1
 74
3
 75
0
 76
0
 77
0
 78
0
281
0
 65
0
146
0.0
  0
ENDTAB
  0
TABLE
  2
LTYPE
  5
2
330
0
100
AcDbSymbolTable
 70
3
  0
LTYPE
  5
24
330
2
100
AcDbSymbolTableRecord
100
AcDbLinetypeTableRecord
  2
ByBlock
 70
0
  3

 72
65
 73
0
 40
0.0
  0
LTYPE
  5
25
330
2
100
AcDbSymbolTableRecord
100
AcDbLinetypeTableRecord
  2
ByLayer
 70
0
  3

 72
65
 73
0
 40
0.0
  0
LTYPE
  5
26
330
2
100
AcDbSymbolTableRecord
100
AcDbLinetypeTableRecord
  2
Continuous
 70
0
  3

 72
65
 73
0
 40
0.0
  0
ENDTAB
  0
TABLE
  2
LAYER
  5
1
330
0
100
AcDbSymbolTable
 70
2
  0
LAYER
  5
27
330
1
100
AcDbSymbolTableRecord
100
AcDbLayerTableRecord
  2
0
 70
0
 62
7
  6
Continuous
370
-3
390
13
347
21
  0
LAYER
  5
28
330
1
100
AcDbSymbolTableRecord
100
AcDbLayerTableRecord
  2
Defpoints
 70
0
 62
7
  6
Continuous
290
0
370
-3
390
13
347
21
  0
ENDTAB
  0
TABLE
  2
STYLE
  5
5
330
0
100
AcDbSymbolTable
 70
1
  0
STYLE
  5
29
330
5
100
AcDbSymbolTableRecord
100
AcDbTextStyleTableRecord
  2
Standard
 70
0
 40
0.0
 41
1.0
 50
0.0
 71
0
 42
2.5
  3
txt
  4

  0
ENDTAB
  0
TABLE
  2
VIEW
  5
7
330
0
100
AcDbSymbolTable
 70
0
  0
ENDTAB
  0
TABLE
  2
UCS
  5
6
330
0
100
AcDbSymbolTable
 70
0
  0
ENDTAB
  0
TABLE
  2
APPID
  5
3
330
0
100
AcDbSymbolTable
 70
3
  0
APPID
  5
2A
330
3
100
AcDbSymbolTableRecord
100
AcDbRegAppTableRecord
  2
ACAD
 70
0
  0
APPID
  5
51
330
3
100
AcDbSymbolTableRecord
100
AcDbRegAppTableRecord
  2
HATCHBACKGROUNDCOLOR
 70
0
  0
APPID
  5
52
330
3
100
AcDbSymbolTableRecord
100
AcDbRegAppTableRecord
  2
EZDXF
 70
0
  0
ENDTAB
  0
TABLE
  2
DIMSTYLE
  5
4
330
0
100
AcDbSymbolTable
 70
1
100
AcDbDimStyleTable
  0
DIMSTYLE
105
2B
330
4
100
AcDbSymbolTableRecord
100
AcDbDimStyleTableRecord
  2
Standard
 70
0
 40
1.0
 41
2.5
 42
0.625
 43
3.75
 44
1.25
 45
0.0
 46
0.0
 47
0.0
 48
0.0
 49
2.5
140
2.5
141
2.5
142
0.0
143
0.03937007874
144
1.0
145
0.0
146
1.0
147
0.625
148
0.0
 69
0
 70
0
 71
0
 72
0
 73
0
 74
0
 75
0
 76
0
 77
1
 78
8
 79
3
170
0
171
3
172
1
173
0
174
0
175
0
176
0
177
0
178
0
179
2
271
2
272
2
273
2
274
3
275
0
276
0
277
2
278
44
279
0
280
0
281
0
282
0
283
0
284
8
285
0
286
0
288
0
289
3
290
0
371
-2
372
-2
  0
ENDTAB
  0
TABLE
  2
BLOCK_RECORD
  5
9
330
0
100
AcDbSymbolTable
 70
2
  0
BLOCK_RECORD
  5
17
330
9
100
AcDbSymbolTableRecord
100
AcDbBlockTableRecord
  2
*Model_Space
340
1A
 70
0
280
1
281
0
  0
BLOCK_RECORD
  5
1B
330
9
100
AcDbSymbolTableRecord
100
AcDbBlockTableRecord
  2
*Paper_Space
340
1E
 70
0
280
1
281
0
  0
ENDTAB
  0
ENDSEC
  0
SECTION
  2
BLOCKS
  0
BLOCK
  5
18
330
17
100
AcDbEntity
  8
0
100
AcDbBlockBegin
  2
*Model_Space
 70
0
 10
0.0
 20
0.0
 30
0.0
  3
*Model_Space
  1

  0
ENDBLK
  5
19
330
17
100
AcDbEntity
  8
0
100
AcDbBlockEnd
  0
BLOCK
  5
1C
330
1B
100
AcDbEntity
  8
0
100
AcDbBlockBegin
  2
*Paper_Space
 70
0
 10
0.0
 20
0.0
 30
0.0
  3
*Paper_Space
  1

  0
ENDBLK
  5
1D
330
1B
100
AcDbEntity
  8
0
100
AcDbBlockEnd
  0
ENDSEC
  0
SECTION
  2
ENTITIES
  0
CIRCLE
  5
2F
330
17
100
AcDbEntity
  8
0
100
AcDbCircle
 10
0.6
 20
0.0
 30
0.0
 40
23.0
  0
LWPOLYLINE
  5
30
330
17
100
AcDbEntity
  8
0
100
AcDbPolyline
 90
1450
 70
0
 10
22.099999999999998
 20
0.0
 10
22.194540807609968
 20
0.536296159395949
 10
22.37302646900093
 20
0.886816972455073
 10
22.52294038941121
 20
1.0789852770781225
 10
22.62629696258197
 20
1.1861976882188303
 10
22.695846540161288
 20
1.2515643143053965
 10
22.74475254698153
 20
1.2961140981675994
 10
22.78198662362658
 20
1.3304147922387202
 10
22.813129215589882
 20
1.3602447286946768
 10
22.841528391090705
 20
1.3890635113337522
 10
22.869108302487902
 20
1.4191098126103427
 10
22.896875052133442
 20
1.4519140963309827
 10
22.92523103038557
 20
1.4885514247512786
 10
22.954175333084912
 20
1.5297729560248965
 10
22.983436611081025
 20
1.5760782800101452
 10
23.01256510752237
 20
1.62775795776141
 10
23.040999339499393
 20
1.6849208301302177
 10
23.068116461186182
 20
1.7475136296440794
 10
23.093271668547217
 20
1.8153369232905319
 10
23.115829865057673
 20
1.8880595829951192
 10
23.135191539226568
 20
1.9652329819295136
 10
23.150814040535177
 20
2.046305546649512
 10
23.16222897447011
 20
2.1306379585194644
 10
23.169056151572672
 20
2.217519090852878
 10
23.171014350701018
 20
2.3061826366097966
 10
23.167929051482275
 20
2.3958242958653275
 10
23.159737229534624
 20
2.485619336134017
 10
23.14648927397543
 20
2.5747403026165308
 10
23.12834806884593
 20
2.6623746341159067
 10
23.105585270209847
 20
2.747741930656923
 10
23.078574802110126
 20
2.830110619089833
 10
23.047783580874984
 20
2.908813772567806
 10
23.013759451233167
 20
2.983263859112058
 10
22.977116270007492
 20
3.0529662250529093
 10
22.9385159905059
 20
3.117531164291527
 10
22.898647462835978
 20
3.176684490498543
 10
22.858201439854515
 20
3.2302766286572666
 10
22.81784091184154
 20
3.2782903976623694
 10
22.77816529430884
 20
3.3208479110767675
 10
22.73966600379916
 20
3.358217465701319
 10
22.70266929161672
 20
3.390822094773044
 10
22.667259342971004
 20
3.4192530092675737
 10
22.633169609400557
 20
3.444294261750903
 10
22.599621259538097
 20
3.4669715407140975
 10
22.56507095726097
 20
3.488652626992006
 10
22.52679946039583
 20
3.5112613900647007
 10
22.480218280158734
 20
3.537752473794667
 10
22.41769403953728
 20
3.5732163729512543
 10
22.32669864393334
 20
3.627578139192285
 10
22.188007596000983
 20
3.7222936643802886
 10
21.98084545207745
 20
3.9048358242500747
 10
21.723695545817094
 20
4.25704337325446
 10
21.55027910116306
 20
4.793627460954604
 10
21.567143493483254
 20
5.308113675851872
 10
21.6724896776833
 20
5.643493362838379
 10
21.770080697839926
 20
5.83511522649538
 10
21.840347304771484
 20
5.947401339181
 10
21.88900392595787
 20
6.018761219934402
 10
21.923991385049757
 20
6.069054524408974
 10
21.951109474483765
 20
6.108845888459483
 10
21.974038824683646
 20
6.144146262511522
 10
21.994950173303078
 20
6.178613132489975
 10
22.015007273796748
 20
6.214591488677861
 10
22.03470913207184
 20
6.253630409209236
 10
22.054115462880016
 20
6.296753634644653
 10
22.072997238458
 20
6.344609452176699
 10
22.0909403544113
 20
6.397558883128035
 10
22.107419677049013
 20
6.455731282447526
 10
22.121853893112963
 20
6.519062352890998
 10
22.13364745389155
 20
6.587322600330218
 10
22.142223440017098
 20
6.660140649313113
 10
22.14704969388212
 20
6.737023892962116
 10
22.1476596707482
 20
6.817377860659281
 10
22.143668912396667
 20
6.9005250527173
 10
22.1347877113788
 20
6.985723609916276
 10
22.120830328416027
 20
7.072185949803088
 10
22.101721001396037
 20
7.159097352306411
 10
22.077496911570492
 20
7.245634381555615
 10
22.048308231837115
 20
7.330982969784603
 10
22.014415360705573
 20
7.414355951575166
 10
21.97618343478056
 20
7.495009815574107
 10
21.934074205454365
 20
7.572260431891514
 10
21.888635355913188
 20
7.645497513873562
 10
21.840487316257573
 20
7.714197581037476
 10
21.79030759996412
 20
7.777935204566756
 10
21.73881262379533
 20
7.8363923374996425
 10
21.686736870383427
 20
7.889365559181603
 10
21.634809084249373
 20
7.936771099989334
 10
21.583724919131875
 20
7.978647563449135
 10
21.534115011813306
 20
8.015156341346074
 10
21.48650673186092
 20
8.046579850855267
 10
21.44127664607073
 20
8.07331797144392
 10
21.398588671357274
 20
8.095883557603383
 10
21.358309274500616
 20
8.114898959005536
 10
21.31988456562419
 20
8.131097822709892
 10
21.282152061318655
 20
8.145341890911192
 10
21.243036932515455
 20
8.158675740073818
 10
21.199038244140457
 20
8.17247628831202
 10
21.144326891426466
 20
8.188845477843055
 10
21.06913930959495
 20
8.211654864650896
 10
20.957079078929276
 20
8.24940785716112
 10
20.78207861317575
 20
8.32308478734802
 10
20.514701948957416
 20
8.484204997438116
 10
20.177656704350866
 20
8.822485225147243
 10
19.930072120967946
 20
9.336599910003333
 10
19.87573826182566
 20
9.811026765399962
 10
19.916476032510502
 20
10.120527067027645
 10
19.967984094676638
 20
10.303284755204107
 10
20.008336027588744
 20
10.41443557729093
 10
20.03738162138496
 20
10.487441015918794
 10
20.05869564413018
 20
10.540422096656304
 10
20.075338674539207
 20
10.583426157501755
 10
20.089301735388567
 20
10.622321115613307
 10
20.101691106063463
 20
10.660702606652226
 10
20.11298373856303
 20
10.700844080077848
 10
20.123230692260208
 20
10.7441916894877
 10
20.132203723476238
 20
10.791635904884869
 10
20.13949951624538
 20
10.843669155418265
 10
20.14461490425581
 20
10.90048304522878
 10
20.147002463593832
 20
10.962032483309828
 10
20.146112582073762
 20
11.028081239759379
 10
20.14142588291454
 20
11.098236889019065
 10
20.132478451652258
 20
11.171979616000037
 10
20.11888141723871
 20
11.248687435787295
 10
20.100335877914954
 20
11.327659276032048
 10
20.076643814263306
 20
11.40813672051764
 10
20.047715417182765
 20
11.489324817349758
 10
20.01357312835477
 20
11.570412110000648
 10
19.97435261421737
 20
11.65058989500805
 10
19.930300851772504
 20
11.729070612586895
 10
19.881771482654358
 20
11.805105215697935
 10
19.82921758175361
 20
11.877999326977706
 10
19.77318198160841
 20
11.947127973576777
 10
19.71428528817497
 20
12.011948682154202
 10
19.65321171215886
 20
12.07201271625874
 10
19.590692816862948
 20
12.126974243078255
 10
19.527489240820717
 20
12.176597223358844
 10
19.46437038039564
 20
12.220759824493763
 10
19.40209189731876
 20
12.259456159479686
 10
19.341370721996665
 20
12.292795150523292
 10
19.28285691079186
 20
12.320996302542051
 10
19.227101207987026
 20
12.344382147019495
 10
19.174516326080052
 20
12.363367084286013
 10
19.125328546800397
 20
12.378442331885092
 10
19.079513802179026
 20
12.39015674278231
 10
19.03670803735384
 20
12.399093578546605
 10
18.996073628186046
 20
12.405844444104417
 10
18.956088331527432
 20
12.410985035346435
 10
18.91419317173778
 20
12.415067570710876
 10
18.866175178384744
 20
12.418675304334528
 10
18.805039965652433
 20
12.4226783697666
 10
18.718911657191637
 20
12.429129249404161
 10
18.587312326417035
 20
12.444201850088712
 10
18.376649314860142
 20
12.487376395927393
 10
18.048756645480353
 20
12.614119247148587
 10
17.636000348751672
 20
12.921711042485313
 10
17.324605400712702
 20
13.39184818501423
 10
17.209568794640436
 20
13.81249389238417
 10
17.196015071244044
 20
14.088272953567241
 10
17.208435945768493
 20
14.25576014520965
 10
17.222668906653844
 20
14.360797217114754
 10
17.233925340198592
 20
14.431792016308291
 10
17.242256667770185
 20
14.484727570053991
 10
17.248442313017573
 20
14.528745764392799
 10
17.253033118312324
 20
14.569276214629339
 10
17.25622036169062
 20
14.609644422904118
 10
17.257896923367973
 20
14.651909815387564
 10
17.25774648120574
 20
14.697320813276217
 10
17.255322228471332
 20
14.746574661327871
 10
17.250109449191633
 20
14.799974154909433
 10
17.24157398830278
 20
14.857527977389196
 10
17.229199689716367
 20
14.919019204162256
 10
17.21251735174579
 20
14.98405532987156
 10
17.19112703944176
 20
15.052107295599647
 10
17.16471501789951
 20
15.122541790518964
 10
17.13306616360632
 20
15.194649297548528
 10
17.09607243992235
 20
15.267669302973912
 10
17.05373784919064
 20
15.340813462686826
 10
17.006180166807795
 20
15.413287134233785
 10
16.953629699610214
 20
15.484309445642133
 10
16.89642527669063
 20
15.553131922924853
 10
16.835007664533258
 20
15.61905560539301
 10
16.76991059252471
 20
15.681446521555475
 10
16.701749573776635
 20
15.739749365985041
 10
16.631208705170103
 20
15.793499200833635
 10
16.559025625380436
 20
15.842330998822286
 10
16.485974795890723
 20
15.885986842868729
 10
16.41284924218276
 20
15.924320596824208
 10
16.340440842895564
 20
15.957299857616054
 10
16.26951917257712
 20
15.985004986086333
 10
16.2008087711064
 20
16.0076249849405
 10
16.13496450104318
 20
16.02544993765853
 10
16.07254431413558
 20
16.038859627885994
 10
16.013978194591186
 20
16.048307804372456
 10
15.959531126073706
 20
16.054301313294413
 10
15.909256357613499
 20
16.057372950572084
 10
15.862932477559058
 20
16.058046354695794
 10
15.819972770551688
 20
16.0567905720142
 10
15.779285832789615
 20
16.053961291429726
 10
15.73904780493002
 20
16.049726139024493
 10
15.696308732996165
 20
16.043976541352308
 10
15.646276303431048
 20
16.0362519009606
 10
15.580953483368372
 20
16.025791981059836
 10
15.48648434484689
 20
16.012171356462858
 10
15.338220537178742
 20
15.998209778616866
 10
15.094507506159466
 20
16.000817334152856
 10
14.709175309594276
 20
16.079817777189874
 10
14.23093685884752
 20
16.340277983581828
 10
13.870588866909385
 20
16.748568149508642
 10
13.707824649654746
 20
17.10666001103481
 10
13.651051219700411
 20
17.34368241184473
 10
13.631670950686336
 20
17.491335679648554
 10
13.623928716853431
 20
17.5864671537393
 10
13.619590689794872
 20
17.652479745466263
 10
13.615988394369376
 20
17.702976651758007
 10
13.612083499420656
 20
17.745923571770955
 10
13.607258664172987
 20
17.786095158331086
 10
13.600963313395544
 20
17.826391563774614
 10
13.592628176857696
 20
17.86855361917041
 10
13.58166362332712
 20
17.913566216321506
 10
13.567481809976817
 20
17.961896987776036
 10
13.549522958299196
 20
18.013645273407214
 10
13.527279479704111
 20
18.068640601003274
 10
13.500316200119236
 20
18.12651184670961
 10
13.468286427710966
 20
18.186738838324946
 10
13.43094405674674
 20
18.248693103304845
 10
13.388151997373477
 20
18.31167164821427
 10
13.33988721086872
 20
18.37492604184317
 10
13.28624259765164
 20
18.437688122514594
 10
13.227425957956575
 20
18.499193076002282
 10
13.163756228764775
 20
18.558700277981277
 10
13.095657194531299
 20
18.615512076284826
 10
13.023648870586085
 20
18.6689905525903
 10
12.948336763691538
 20
18.718572220157878
 10
12.870399221160897
 20
18.763780565157006
 10
12.790573085457973
 20
18.804236311839414
 10
12.709637872637659
 20
18.839665278042222
 10
12.628398687447604
 20
18.869903680956057
 10
12.547668071862123
 20
18.89490074837843
 10
12.468246952480566
 20
18.914718482368723
 10
12.390904798583628
 20
18.929528403998248
 10
12.316359015805103
 20
18.939605071424747
 10
12.24525346266644
 20
18.945316096968856
 10
12.178135758986487
 20
18.947108274463087
 10
12.115432705172624
 20
18.945489238336997
 10
12.057422558455611
 20
18.941003767069923
 10
12.004201949152746
 20
18.934203345905175
 10
11.955643550922222
 20
18.92560680529274
 10
11.911337625030097
 20
18.9156485778938
 10
11.870504984248946
 20
18.904609116508606
 10
11.831858119610375
 20
18.892519012568737
 10
11.793365402663278
 20
18.87902443470719
 10
11.751827271916099
 20
18.863198906785314
 10
11.702072817814944
 20
18.843297194131257
 10
11.635362798566815
 20
18.816525153854272
 10
11.536126357101848
 20
18.779276095673794
 10
11.375602323636453
 20
18.72989723209621
 10
11.103721632105037
 20
18.681744521089293
 10
10.668024337828232
 20
18.700294443603138
 10
10.140382620356494
 20
18.899266714115644
 10
9.748655876880171
 20
19.23322873514962
 10
9.552127750527312
 20
19.524697513101753
 10
9.463158750611722
 20
19.720471522869687
 10
9.419180445503189
 20
19.845417414484825
 10
9.393725951247633
 20
19.927950850670463
 10
9.376219386388803
 20
19.986662510121732
 10
9.362017097451764
 20
20.032673795873166
 10
9.348714369687855
 20
20.07261010695521
 10
9.3348050982439
 20
20.110448999580306
 10
9.319181484301419
 20
20.148562410364065
 10
9.300943534900608
 20
20.188306312253545
 10
9.279328088980026
 20
20.2303656839208
 10
9.253685498728089
 20
20.27496566470341
 10
9.223475316442016
 20
20.322007587861652
 10
9.18826899284949
 20
20.371161538834922
 10
9.14775435467208
 20
20.421932939940767
 10
9.101739509096094
 20
20.473713085198572
 10
9.050155105799526
 20
20.52581937207682
 10
8.993054485506496
 20
20.577528607639856
 10
8.930611538175008
 20
20.6281053861554
 10
8.863116248611366
 20
20.676826711938613
 10
8.790967996069455
 20
20.723003540927355
 10
8.714666730760174
 20
20.765999606678466
 10
8.63480218958027
 20
20.805247706331524
 10
8.552041342748455
 20
20.84026350549181
 10
8.467114285343353
 20
20.870656851108393
 10
8.380798803886025
 20
20.896140541323494
 10
8.293903857909292
 20
20.91653647968377
 10
8.207252218983271
 20
20.931779129955295
 10
8.121662503308498
 20
20.94191618059057
 10
8.037930816247316
 20
20.947106318632407
 10
7.9568121941852965
 20
20.947613994918086
 10
7.879001974795348
 20
20.94380102758993
 10
7.8051171411802045
 20
20.936114827589574
 10
7.735677551845611
 20
20.925072920820323
 10
7.671086758351091
 20
20.911243260180964
 10
7.611611775120546
 20
20.895219523494053
 10
7.55736060906228
 20
20.877590109118714
 10
7.508255407376663
 20
20.85889874960111
 10
7.463997404801009
 20
20.839593359890717
 10
7.4240167721678905
 20
20.819957568185856
 10
7.387394576419775
 20
20.800015747402963
 10
7.352732283828485
 20
20.779396318885027
 10
7.317919576863481
 20
20.757128398718315
 10
7.279697140278563
 20
20.731333340046017
 10
7.23278722209764
 20
20.698764304783097
 10
7.1680754348971085
 20
20.654201706277917
 10
7.068690545781252
 20
20.59012809583064
 10
6.901976596511677
 20
20.499244036861754
 10
6.609301120406243
 20
20.39065735096309
 10
6.134678715709633
 20
20.338059039860642
 10
5.578361206653303
 20
20.465034880991734
 10
5.173562747905078
 20
20.718355265418015
 10
4.956985252831664
 20
20.943175618802044
 10
4.8462142900263165
 20
21.09739379819376
 10
4.7844720966726255
 20
21.198243613762234
 10
4.745503777882842
 20
21.266470519883786
 10
4.717370576805309
 20
21.316167657415328
 10
4.694125407894417
 20
21.35599229592843
 10
4.672421931175841
 20
21.391159666218353
 10
4.650138719404796
 20
21.42477653450285
 10
4.62579569292761
 20
21.458633269423416
 10
4.598294038331566
 20
21.493671452825257
 10
4.566795250528022
 20
21.530267835580442
 10
4.5306628695139
 20
21.568414117122053
 10
4.489433374075619
 20
21.607836369414432
 10
4.442800704554232
 20
21.648078485424826
 10
4.3906068753314855
 20
21.688563474108516
 10
4.33283487093712
 20
21.72864059701317
 10
4.269601853235488
 20
21.767623051798985
 10
4.201151652481954
 20
21.80481900558645
 10
4.127846026911843
 20
21.839557656110408
 10
4.0501544671126455
 20
21.87121132077933
 10
3.968642496443791
 20
21.899214139611573
 10
3.8839585293248593
 20
21.92307772335049
 10
3.7968194222231917
 20
21.942403921927028
 10
3.707994901815092
 20
21.956894794242395
 10
3.6182910886101167
 20
21.96635980526963
 10
3.5285333562655543
 20
21.97072024601741
 10
3.4395487787824264
 20
21.970010855855723
 10
3.352148420381763
 20
21.96437861746347
 10
3.2671097157457076
 20
21.954078685709845
 10
3.1851591701132254
 20
21.939467396584934
 10
3.106955576772638
 20
21.92099227317334
 10
3.033073899077701
 20
21.899178892386683
 10
2.9639898870559076
 20
21.874614383869854
 10
2.900065380694098
 20
21.84792717827053
 10
2.8415340676498806
 20
21.819762369195793
 10
2.788487166099033
 20
21.79075164095538
 10
2.7408580068504467
 20
21.76147603955325
 10
2.6984036249145404
 20
21.732418748298244
 10
2.660679903630343
 20
21.70390315432122
 10
2.6270038462469074
 20
21.676008285709695
 10
2.5963906672992243
 20
21.648448121179843
 10
2.5674411665367716
 20
21.620391463631233
 10
2.538128106984467
 20
21.590181927910105
 10
2.5053687380958047
 20
21.554889334103937
 10
2.4641218338415705
 20
21.50958777057551
 10
2.405378211074664
 20
21.446272005156178
 10
2.31154313666741
 20
21.352781118099173
 10
2.1464416781549085
 20
21.214997032502776
 10
1.8429123914298782
 20
21.037663095906083
 10
1.3450781004234573
 20
20.90673757606455
 10
0.7833585068641544
 20
20.95640491604798
 10
0.3827602991508081
 20
21.128733984525212
 10
0.15869693859753964
 20
21.29008268908308
 10
0.035494467857507095
 20
21.404220275757073
 10
-0.03775271582188777
 20
21.48083759581592
 10
-0.08624041340243971
 20
21.533902763223686
 10
-0.12243259808587559
 20
21.573421235326098
 10
-0.1529907214916888
 20
21.60570226278637
 10
-0.1818163832016224
 20
21.634561821282905
 10
-0.2113903055792623
 20
21.662222874676985
 10
-0.24338940093367123
 20
21.689885704563626
 10
-0.2789869478872318
 20
21.7180813782207
 10
-0.31900665378374327
 20
21.74689529307399
 10
-0.3640061737338913
 20
21.77611381779449
 10
-0.4143253369033084
 20
21.80532474712833
 10
-0.4701163628638527
 20
21.833989283716797
 10
-0.53136492103695
 20
21.861495867822384
 10
-0.5979067318671429
 20
21.88720195487117
 10
-0.6694422635248627
 20
21.91046739419508
 10
-0.7455509205351769
 20
21.93068161879501
 10
-0.8257054690764709
 20
21.947285989679557
 10
-0.9092870614857744
 20
21.959792111494636
 10
-0.9956009895169726
 20
21.9677966132873
 10
-1.0838931489142756
 20
21.97099269048136
 10
-1.1733671026669208
 20
21.969178584430846
 10
-1.2632015678953856
 20
21.962263105388068
 10
-1.3525681108994194
 20
21.950268265031227
 10
-1.4406488102656156
 20
21.933329063618075
 10
-1.526653635518138
 20
21.911690465620534
 10
-1.609837286646796
 20
21.885701589391825
 10
-1.6895152471201744
 20
21.855807124630857
 10
-1.7650788197959446
 20
21.822535969227264
 10
-1.8360089426760073
 20
21.786487035845976
 10
-1.9018886225142337
 20
21.748312106262205
 10
-1.9624138843504235
 20
21.708695489823008
 10
-2.017403224454136
 20
21.668330042785758
 10
-2.066805692411112
 20
21.627888780622772
 10
-2.110707952510513
 20
21.587990786242443
 10
-2.1493410584379022
 20
21.549159245637576
 10
-2.183088366590055
 20
21.51176798339923
 10
-2.2124973219308677
 20
21.47597037618626
 10
-2.238300450705193
 20
21.441600157074973
 10
-2.2614563208350305
 20
21.408025800616347
 10
-2.283233145368933
 20
21.37392586930931
 10
-2.3053853043889605
 20
21.33692630182656
 10
-2.3305406469360497
 20
21.29299313874093
 10
-2.363090864391263
 20
21.235400048105948
 10
-2.4113423757289913
 20
21.153048780957057
 10
-2.492867746689905
 20
21.02842656700668
 10
-2.6468590051208274
 20
20.839509830952572
 10
-2.948874733502306
 20
20.587500959045254
 10
-3.450687519686994
 20
20.37599336460011
 10
-3.9945749234843575
 20
20.34882671451332
 10
-4.376024244006897
 20
20.444839149034557
 10
-4.596733473603305
 20
20.54823294384562
 10
-4.7242568469491735
 20
20.625141146078512
 10
-4.803460832205338
 20
20.67840152785469
 10
-4.85777627028798
 20
20.71616809946453
 10
-4.899502335855181
 20
20.744836017590046
 10
-4.9355142521742
 20
20.768560014432726
 10
-4.969929898820168
 20
20.789834380883097
 10
-5.005359984235075
 20
20.810036875297723
 10
-5.043520479137517
 20
20.829807814706445
 10
-5.085549032006145
 20
20.849300276843916
 10
-5.132177766697042
 20
20.868346231806033
 10
-5.183833366441335
 20
20.886569964530207
 10
-5.2406990270064755
 20
20.903468338590983
 10
-5.302755918675174
 20
20.91846972925971
 10
-5.369813513266789
 20
20.930978759883427
 10
-5.4415338955746595
 20
20.940411171030217
 10
-5.517452917324642
 20
20.946221472299488
 10
-5.596999795842744
 20
20.94792501206585
 10
-5.6795160356823615
 20
20.94511548182998
 10
-5.764274119676247
 20
20.937478492486772
 10
-5.8504961504552
 20
20.92480162729546
 10
-5.93737245630554
 20
20.90698123527358
 10
-6.024080068344362
 20
20.88402614520886
 10
-6.109800907607202
 20
20.856058433115237
 10
-6.19373947794758
 20
20.82331135076446
 10
-6.275139835883211
 20
20.786124510231218
 10
-6.3533015968565865
 20
20.744936411925888
 10
-6.427594735711494
 20
20.700274395175526
 10
-6.497472945507002
 20
20.652742074925996
 10
-6.562485331838395
 20
20.60300429845954
 10
-6.622286239029774
 20
20.551769602723365
 10
-6.676643030196156
 20
20.499770062239033
 10
-6.7254416770012
 20
20.447738268401828
 10
-6.768690061556993
 20
20.396380939024652
 10
-6.8065189627406975
 20
20.34634826499263
 10
-6.839180814972777
 20
20.29819746039513
 10
-6.867046538761186
 20
20.252347919281455
 10
-6.8906011587613945
 20
20.209023579403496
 10
-6.910439796026977
 20
20.168174958453307
 10
-6.927267532676551
 20
20.129367722786608
 10
-6.941911034766014
 20
20.09161433080358
 10
-6.955360365413591
 20
20.05310578117154
 10
-6.96888607036673
 20
20.010762907562206
 10
-6.9843476795878745
 20
19.959454794073583
 10
-7.005009472332438
 20
19.890606706741696
 10
-7.03775989518081
 20
19.789796124691918
 10
-7.099239042886265
 20
19.633506163767922
 10
-7.231106575947012
 20
19.39091855540882
 10
-7.517262309044727
 20
19.061842381429713
 10
-8.001804324148415
 20
18.77337265676404
 10
-8.507143975814223
 20
18.675330270512394
 10
-8.857556725133104
 20
18.70340620475266
 10
-9.066090273547607
 20
18.755910538214252
 10
-9.19119692995556
 20
18.799429403941
 10
-9.271594786301577
 20
18.83098703473581
 10
-9.328412574703579
 20
18.85390597209738
 10
-9.373240628768173
 20
18.87148974291972
 10
-9.412758209163455
 20
18.885989134234713
 10
-9.451014135576072
 20
18.898706591587008
 10
-9.49055356399237
 20
18.91025488127458
 10
-9.532997773183903
 20
18.920775795771526
 10
-9.5793581241803
 20
18.93009974895035
 10
-9.63021568678894
 20
18.937859197780412
 10
-9.685830283877555
 20
18.943570085527046
 10
-9.746211173957025
 20
18.946691660513352
 10
-9.811166317480202
 20
18.946671491701025
 10
-9.880339452160257
 20
18.94298002927582
 10
-9.953240137066555
 20
18.935137457255554
 10
-10.029269699796599
 20
18.922734575677467
 10
-10.107744758381049
 20
18.90544881921093
 10
-10.187919249462386
 20
18.883056126670645
 10
-10.269005447808137
 20
18.855439133384984
 10
-10.350194186423877
 20
18.822592010529906
 10
-10.43067431331547
 20
18.784622187778613
 10
-10.50965131147559
 20
18.74174914589015
 10
-10.586364940130121
 20
18.694300439733784
 10
-10.660105713860922
 20
18.642705099868895
 10
-10.73023001323502
 20
18.587484555003904
 10
-10.796173610278263
 20
18.52924121268168
 10
-10.857463390471509
 20
18.468644826083676
 10
-10.913727056766039
 20
18.406416755198403
 10
-10.964700607665588
 20
18.343312193642667
 10
-11.010233388036847
 20
18.28010036822193
 10
-11.05029051516709
 20
18.21754261190943
 10
-11.084952480623787
 20
18.156368038574293
 10
-11.114411717581884
 20
18.097246270370874
 10
-11.13896590128324
 20
18.04075621965002
 10
-11.159007718883409
 20
17.9873491899893
 10
-11.175010818031613
 20
17.937303325316442
 10
-11.18751166983127
 20
17.890664311946306
 10
-11.197087306411836
 20
17.84716347878534
 10
-11.204329728676658
 20
17.80609757130373
 10
-11.209820396250548
 20
17.766141496300257
 10
-11.214116002982905
 20
17.72504000487253
 10
-11.21777991343368
 20
17.679073544593276
 10
-11.221564271903356
 20
17.622091432376628
 10
-11.227070968831
 20
17.54371339414417
 10
-11.238941667810526
 20
17.42606191626966
 10
-11.271830096451344
 20
17.23905441824548
 10
-11.36941378144479
 20
16.942528825604494
 10
-11.624212994962269
 20
16.538659576760608
 10
-12.07034499856345
 20
16.18288117595988
 10
-12.520786561096497
 20
16.024339673148695
 10
-12.831592050762113
 20
15.995185766691458
 10
-13.021229244230662
 20
16.00473500273889
 10
-13.138572432943603
 20
16.01934184370462
 10
-13.21621072546183
 20
16.03141396543508
 10
-13.272606276138015
 20
16.040404201562556
 10
-13.318235558063892
 20
16.047060652668357
 10
-13.359262411711077
 20
16.052018688024724
 10
-13.399438492969784
 20
16.05555674607743
 10
-13.441086382979158
 20
16.05763393054622
 10
-13.48562733902608
 20
16.05797822118977
 10
-13.533878716174954
 20
16.05616894865816
 10
-13.586230851102453
 20
16.051703333164816
 10
-13.642758578995982
 20
16.0440481878955
 10
-13.703296126094076
 20
16.032679847689842
 10
-13.767490885054684
 20
16.01711504638559
 10
-13.83484469704111
 20
15.996934751963682
 10
-13.904747549134266
 20
15.971802351003463
 10
-13.976506518930737
 20
15.941477126929986
 10
-14.049371599530671
 20
15.905823675349282
 10
-14.122559326329617
 20
15.864817705088747
 10
-14.195274694131951
 20
15.818548552187034
 10
-14.266731585063145
 20
15.767218661730183
 10
-14.336171760167673
 20
15.711140252165112
 10
-14.402882362981694
 20
15.650729356803602
 10
-14.466211819305833
 20
15.586497429392479
 10
-14.525583979914689
 20
15.51904069878842
 10
-14.580510332936363
 20
15.44902745712664
 10
-14.630600103786152
 20
15.377183462150809
 10
-14.675568057977745
 20
15.304275623229811
 10
-14.715239821599065
 20
15.231094116887508
 10
-14.749554531389961
 20
15.1584330345365
 10
-14.778564616138897
 20
15.087069592472506
 10
-14.80243248699616
 20
15.017741816390751
 10
-14.82142386728496
 20
14.951124424284576
 10
-14.83589740962509
 20
14.887802329807013
 10
-14.846290111094575
 20
14.828240698924786
 10
-14.853097819312797
 20
14.772749683823246
 10
-14.856849788395643
 20
14.721440586689903
 10
-14.858075754791994
 20
14.67416781171545
 10
-14.857263346657568
 20
14.630446643744207
 10
-14.854802947242494
 20
14.589328815142563
 10
-14.850917087572451
 20
14.54920214418895
 10
-14.845574715167078
 20
14.507448933942488
 10
-14.838406986648867
 20
14.45983205568026
 10
-14.828705822238078
 20
14.399338864511721
 10
-14.815829613216078
 20
14.31393451680249
 10
-14.801240706340632
 20
14.182280686824397
 10
-14.796455846092844
 20
13.967292196530133
 10
-14.847058006390075
 20
13.619417543325966
 10
-15.055090916577566
 20
13.148564295140725
 10
-15.444148844715471
 20
12.740361312542067
 10
-15.828650032947579
 20
12.534606438690854
 10
-16.094498750101476
 20
12.460025921177673
 10
-16.26055059276634
 20
12.434865972135281
 10
-16.366121297729645
 20
12.425369135635039
 10
-16.43784090118856
 20
12.42054551786685
 10
-16.491303144874376
 20
12.41688869280293
 10
-16.535594146736692
 20
12.413124281294126
 10
-16.576129964247393
 20
12.40858111187506
 10
-16.616195285632525
 20
12.402705673000035
 10
-16.657774066554243
 20
12.394935265166335
 10
-16.70201303938547
 20
12.384683697241137
 10
-16.74949254365078
 20
12.371360213314775
 10
-16.800393247925996
 20
12.354395624110394
 10
-16.854604757185538
 20
12.333267234715562
 10
-16.911800730042394
 20
12.307520100418339
 10
-16.97149409487077
 20
12.276784124056636
 10
-17.033080063466414
 20
12.240787124569776
 10
-17.095871390842433
 20
12.199364157958897
 10
-17.159128479507434
 20
12.152463376710411
 10
-17.22208584299963
 20
12.100148683110612
 10
-17.28397579324855
 20
12.042599402222711
 10
-17.34404981863735
 20
11.98010718114913
 10
-17.40159787337637
 20
11.913070312813678
 10
-17.455965645850302
 20
11.841985682286985
 10
-17.50656977954369
 20
11.767438538502555
 10
-17.55291096391591
 20
11.690090301065252
 10
-17.594584780758655
 20
11.61066461797023
 10
-17.631290175063295
 20
11.529931892765664
 10
-17.66283541159382
 20
11.448692496196264
 10
-17.68914137368021
 20
11.367758864328843
 10
-17.71024205388296
 20
11.287936658192972
 10
-17.726282071116376
 20
11.210005112738896
 10
-17.737511017855635
 20
11.1346966257043
 10
-17.744274383404306
 20
11.062675514182153
 10
-17.747000698872295
 20
10.994515672313737
 10
-17.746184381880358
 20
10.930676553020435
 10
-17.74236348523701
 20
10.871476391312475
 10
-17.73609111183924
 20
10.81706074327532
 10
-17.727898548325143
 20
10.767362964629184
 10
-17.718247035747332
 20
10.72205067444901
 10
-17.70746330403364
 20
10.680447494923522
 10
-17.695651264029802
 20
10.641410237796157
 10
-17.682568492197724
 20
10.603123471373348
 10
-17.667452710740143
 20
10.562735363048176
 10
-17.648788480255774
 20
10.515676245145302
 10
-17.624055117456315
 20
10.4543187557092
 10
-17.58975462942153
 20
10.365249029831224
 10
-17.543151296527135
 20
10.223809248710982
 10
-17.49146222392201
 20
9.985626376514658
 10
-17.482737480650396
 20
9.592376010253359
 10
-17.63024933916057
 20
9.068170147556945
 10
-17.948117846476617
 20
8.626003723070568
 10
-18.26101315176544
 20
8.387637409095653
 10
-18.479459629470043
 20
8.279544961566081
 10
-18.61909840601551
 20
8.227794653305258
 10
-18.710121926330174
 20
8.199077788975604
 10
-18.773514142727656
 20
8.18015934174845
 10
-18.82194340000784
 20
8.165410744640269
 10
-18.862944630199717
 20
8.1520471648088
 10
-18.90103540436831
 20
8.138404279294297
 10
-18.938920647461227
 20
8.12329997233002
 10
-18.97817086973449
 20
8.10579187512323
 10
-19.01961506440485
 20
8.0850859806838
 10
-19.063578332161256
 20
8.060505126600342
 10
-19.110032959782554
 20
8.031481463979812
 10
-19.15869980006412
 20
7.997558064173535
 10
-19.209120198660212
 20
7.958393246658488
 10
-19.26070987898205
 20
7.913764761093207
 10
-19.312801361926557
 20
7.863572520427236
 10
-19.3646787742097
 20
7.807839302692043
 10
-19.41560732275641
 20
7.746709188405917
 10
-19.46485877759479
 20
7.680443680834343
 10
-19.511733739890275
 20
7.609415557401857
 10
-19.555581124470926
 20
7.534100563090219
 10
-19.595815071679148
 20
7.455067099405138
 10
-19.63192937143339
 20
7.372964093987464
 10
-19.663509402713146
 20
7.288507259876501
 10
-19.69024154536216
 20
7.202463971104697
 10
-19.71191999574027
 20
7.115636992750626
 10
-19.728450904644397
 20
7.028847308045172
 10
-19.73985374830256
 20
6.942916281182745
 10
-19.74625983507637
 20
6.858647379891849
 10
-19.747907835439058
 20
6.776807653113628
 10
-19.74513619309358
 20
6.698109110898412
 10
-19.738372220223056
 20
6.623190077085275
 10
-19.728117584339294
 20
6.552596465881341
 10
-19.71492973409414
 20
6.486762746152375
 10
-19.69939854848741
 20
6.425992058241091
 10
-19.682117065323432
 20
6.3704344582724985
 10
-19.663644445227536
 20
6.320061436828678
 10
-19.644458177710582
 20
6.274633409268775
 10
-19.62489062785419
 20
6.233654239502849
 10
-19.60504183145179
 20
6.196301869535016
 10
-19.58465511524577
 20
6.161314263700895
 10
-19.562933439299854
 20
6.126789465602548
 10
-19.538261586755137
 20
6.089814293770797
 10
-19.5077874439934
 20
6.045735835399318
 10
-19.466842258873978
 20
5.986655715018481
 10
-19.408444926714058
 20
5.898196033544004
 10
-19.324584136491296
 20
5.752684503583561
 10
-19.217139569079162
 20
5.498335414852044
 10
-19.138272637462013
 20
5.06943421531688
 10
-19.214844929968738
 20
4.510746081856299
 10
-19.453266425069398
 20
4.054527204866732
 10
-19.69369584999972
 20
3.7980685442675326
 10
-19.86476393164786
 20
3.6677663674329883
 10
-19.976791075369338
 20
3.5970876137560213
 10
-20.051591068159865
 20
3.5539058995131585
 10
-20.10493512656667
 20
3.52377368749064
 10
-20.146632506722522
 20
3.4996890053111156
 10
-20.182607395699797
 20
3.477833139465174
 10
-20.216402484213695
 20
3.4558526567695402
 10
-20.25008373104898
 20
3.432139727683997
 10
-20.284772844805932
 20
3.4055151915846777
 10
-20.320967810999036
 20
3.375082599357428
 10
-20.358743564014855
 20
3.340158493001995
 10
-20.397883649967252
 20
3.3002379303829263
 10
-20.437971064758134
 20
3.254976519749052
 10
-20.47845416571066
 20
3.2041799685456045
 10
-20.518696808205902
 20
3.1477966449356787
 10
-20.55801807208453
 20
3.085910830707469
 10
-20.59572476579542
 20
3.0187354547892484
 10
-20.631138615919276
 20
2.9466036905250905
 10
-20.66361928147248
 20
2.8699591338718355
 10
-20.692583864410715
 20
2.7893444775398684
 10
-20.717523300206807
 20
2.705388719547672
 10
-20.73801583576532
 20
2.6187930253669878
 10
-20.753737694802005
 20
2.530315417422471
 10
-20.76447096765626
 20
2.4407545030061004
 10
-20.770108727003574
 20
2.3509324763326274
 10
-20.77065735207133
 20
2.261677644819535
 10
-20.766236033654
 20
2.1738067346198706
 10
-20.757073423796527
 20
2.088107225837904
 10
-20.743501381034992
 20
2.005319952623453
 10
-20.72594573727376
 20
1.9261221751762216
 10
-20.70491396630732
 20
1.851111285490972
 10
-20.6809795532071
 20
1.7807892393153173
 10
-20.654762727821776
 20
1.7155477008695317
 10
-20.62690700195508
 20
1.6556537224235233
 10
-20.598050584986062
 20
1.6012355180485531
 10
-20.56879115669662
 20
1.5522674557418445
 10
-20.53964149324509
 20
1.5085526427619869
 10
-20.510971797892704
 20
1.4697001340623164
 10
-20.482931788768163
 20
1.4350912740707376
 10
-20.45534074586579
 20
1.4038247458159154
 10
-20.42752520374993
 20
1.3746197637599062
 10
-20.398069030765765
 20
1.3456349624338824
 10
-20.36441541578282
 20
1.3141107826828602
 10
-20.32222451542673
 20
1.2756242862348781
 10
-20.264379466978834
 20
1.2224510696848017
 10
-20.179797097372298
 20
1.1398156868753309
 10
-20.05409434781615
 20
0.9975052100658628
 10
-19.883103736553124
 20
0.7363305299609495
 10
-19.726210754156057
 20
0.2853121251864268
 10
-19.726210754156057
 20
-0.2853121251864302
 10
-19.883103736553146
 20
-0.736330529960983
 10
-20.054094347816168
 20
-0.9975052100658877
 10
-20.179797097372308
 20
-1.139815686875346
 10
-20.264379466978834
 20
-1.222451069684806
 10
-20.322224515426736
 20
-1.2756242862348766
 10
-20.36441541578282
 20
-1.3141107826828642
 10
-20.398069030765768
 20
-1.3456349624338888
 10
-20.427525203749937
 20
-1.3746197637599131
 10
-20.455340745865794
 20
-1.4038247458159125
 10
-20.482931788768163
 20
-1.435091274070742
 10
-20.510971797892708
 20
-1.4697001340623137
 10
-20.53964149324509
 20
-1.508552642761991
 10
-20.56879115669663
 20
-1.5522674557418479
 10
-20.598050584986066
 20
-1.6012355180485622
 10
-20.626907001955086
 20
-1.6556537224235233
 10
-20.654762727821772
 20
-1.7155477008695366
 10
-20.680979553207102
 20
-1.7807892393153182
 10
-20.704913966307316
 20
-1.8511112854909837
 10
-20.72594573727377
 20
-1.9261221751762319
 10
-20.743501381034992
 20
-2.0053199526234575
 10
-20.757073423796527
 20
-2.0881072258379065
 10
-20.766236033653993
 20
-2.173806734619875
 10
-20.77065735207133
 20
-2.261677644819539
 10
-20.770108727003578
 20
-2.3509324763326407
 10
-20.764470967656262
 20
-2.4407545030061133
 10
-20.753737694802005
 20
-2.530315417422475
 10
-20.73801583576532
 20
-2.6187930253669918
 10
-20.717523300206807
 20
-2.705388719547676
 10
-20.69258386441071
 20
-2.789344477539871
 10
-20.663619281472478
 20
-2.8699591338718475
 10
-20.631138615919273
 20
-2.946603690525103
 10
-20.59572476579542
 20
-3.018735454789253
 10
-20.55801807208453
 20
-3.0859108307074736
 10
-20.518696808205902
 20
-3.147796644935683
 10
-20.478454165710655
 20
-3.2041799685456134
 10
-20.43797106475813
 20
-3.2549765197490603
 10
-20.397883649967252
 20
-3.300237930382931
 10
-20.358743564014855
 20
-3.340158493001999
 10
-20.320967810999036
 20
-3.375082599357432
 10
-20.28477284480593
 20
-3.405515191584674
 10
-20.250083731048974
 20
-3.432139727684003
 10
-20.21640248421369
 20
-3.4558526567695385
 10
-20.182607395699797
 20
-3.4778331394651776
 10
-20.14663250672252
 20
-3.499689005311111
 10
-20.10493512656667
 20
-3.5237736874906442
 10
-20.051591068159855
 20
-3.5539058995131594
 10
-19.97679107536933
 20
-3.597087613756031
 10
-19.864763931647843
 20
-3.6677663674329932
 10
-19.693695849999724
 20
-3.7980685442675366
 10
-19.45326642506937
 20
-4.0545272048667655
 10
-19.214844929968738
 20
-4.510746081856302
 10
-19.138272637462023
 20
-5.069434215316993
 10
-19.217139569079176
 20
-5.498335414852085
 10
-19.324584136491307
 20
-5.752684503583578
 10
-19.408444926714058
 20
-5.898196033544008
 10
-19.46684225887398
 20
-5.986655715018483
 10
-19.507787443993404
 20
-6.045735835399326
 10
-19.538261586755148
 20
-6.0898142937707975
 10
-19.562933439299854
 20
-6.126789465602553
 10
-19.584655115245777
 20
-6.161314263700893
 10
-19.60504183145179
 20
-6.196301869535018
 10
-19.624890627854196
 20
-6.233654239502847
 10
-19.644458177710586
 20
-6.274633409268784
 10
-19.66364444522754
 20
-6.320061436828686
 10
-19.682117065323432
 20
-6.370434458272501
 10
-19.69939854848741
 20
-6.4259920582410945
 10
-19.71492973409414
 20
-6.48676274615238
 10
-19.728117584339294
 20
-6.5525964658813445
 10
-19.738372220223056
 20
-6.623190077085287
 10
-19.745136193093575
 20
-6.698109110898423
 10
-19.747907835439058
 20
-6.7768076531136305
 10
-19.74625983507637
 20
-6.858647379891853
 10
-19.739853748302558
 20
-6.942916281182749
 10
-19.728450904644397
 20
-7.0288473080451865
 10
-19.71191999574027
 20
-7.115636992750638
 10
-19.69024154536216
 20
-7.2024639711047005
 10
-19.663509402713146
 20
-7.288507259876505
 10
-19.631929371433387
 20
-7.372964093987469
 10
-19.595815071679148
 20
-7.45506709940514
 10
-19.555581124470923
 20
-7.53410056309023
 10
-19.51173373989027
 20
-7.609415557401866
 10
-19.46485877759479
 20
-7.6804436808343475
 10
-19.415607322756404
 20
-7.7467091884059185
 10
-19.364678774209697
 20
-7.807839302692049
 10
-19.312801361926546
 20
-7.86357252042724
 10
-19.26070987898204
 20
-7.913764761093217
 10
-19.20912019866021
 20
-7.958393246658488
 10
-19.158699800064117
 20
-7.997558064173539
 10
-19.11003295978255
 20
-8.03148146397981
 10
-19.063578332161253
 20
-8.060505126600347
 10
-19.019615064404846
 20
-8.0850859806838
 10
-18.978170869734484
 20
-8.105791875123236
 10
-18.938920647461227
 20
-8.123299972330017
 10
-18.901035404368308
 20
-8.138404279294301
 10
-18.86294463019971
 20
-8.152047164808796
 10
-18.821943400007836
 20
-8.165410744640274
 10
-18.77351414272765
 20
-8.180159341748453
 10
-18.71012192633017
 20
-8.199077788975607
 10
-18.619098406015503
 20
-8.227794653305256
 10
-18.47945962947004
 20
-8.279544961566085
 10
-18.26101315176544
 20
-8.387637409095655
 10
-17.94811784647658
 20
-8.626003723070609
 10
-17.63024933916054
 20
-9.068170147557005
 10
-17.482737480650396
 20
-9.59237601025336
 10
-17.491462223922007
 20
-9.985626376514661
 10
-17.543151296527142
 20
-10.223809248711
 10
-17.58975462942153
 20
-10.365249029831242
 10
-17.62405511745632
 20
-10.45431875570921
 10
-17.64878848025577
 20
-10.515676245145311
 10
-17.66745271074015
 20
-10.562735363048173
 10
-17.682568492197724
 20
-10.603123471373351
 10
-17.69565126402981
 20
-10.641410237796155
 10
-17.70746330403364
 20
-10.680447494923532
 10
-17.718247035747336
 20
-10.722050674449012
 10
-17.727898548325143
 20
-10.767362964629188
 10
-17.736091111839247
 20
-10.817060743275324
 10
-17.742363485237007
 20
-10.871476391312479
 10
-17.74618438188036
 20
-10.930676553020437
 10
-17.747000698872295
 20
-10.994515672313746
 10
-17.744274383404306
 20
-11.062675514182162
 10
-17.737511017855635
 20
-11.134696625704304
 10
-17.72628207111638
 20
-11.210005112738902
 10
-17.710242053882958
 20
-11.287936658192978
 10
-17.689141373680215
 20
-11.367758864328856
 10
-17.662835411593814
 20
-11.448692496196276
 10
-17.63129017506329
 20
-11.52993189276567
 10
-17.59458478075865
 20
-11.610664617970235
 10
-17.55291096391591
 20
-11.690090301065258
 10
-17.506569779543685
 20
-11.767438538502557
 10
-17.455965645850295
 20
-11.841985682286998
 10
-17.401597873376364
 20
-11.913070312813689
 10
-17.344049818637348
 20
-11.980107181149133
 10
-17.28397579324855
 20
-12.042599402222715
 10
-17.222085842999626
 20
-12.100148683110614
 10
-17.159128479507423
 20
-12.152463376710418
 10
-17.095871390842422
 20
-12.199364157958904
 10
-17.03308006346641
 20
-12.240787124569778
 10
-16.971494094870767
 20
-12.276784124056638
 10
-16.91180073004239
 20
-12.307520100418342
 10
-16.854604757185538
 20
-12.333267234715567
 10
-16.80039324792599
 20
-12.3543956241104
 10
-16.749492543650778
 20
-12.37136021331478
 10
-16.702013039385466
 20
-12.384683697241138
 10
-16.65777406655424
 20
-12.394935265166337
 10
-16.61619528563252
 20
-12.402705673000032
 10
-16.576129964247382
 20
-12.408581111875067
 10
-16.535594146736685
 20
-12.413124281294122
 10
-16.49130314487437
 20
-12.416888692802935
 10
-16.437840901188558
 20
-12.420545517866843
 10
-16.36612129772964
 20
-12.425369135635043
 10
-16.260550592766332
 20
-12.43486597213528
 10
-16.094498750101444
 20
-12.460025921177678
 10
-15.828650032947507
 20
-12.534606438690878
 10
-15.444148844715468
 20
-12.74036131254207
 10
-15.055090916577534
 20
-13.148564295140776
 10
-14.847058006390075
 20
-13.619417543325966
 10
-14.79645584609285
 20
-13.967292196530162
 10
-14.801240706340632
 20
-14.182280686824418
 10
-14.815829613216088
 20
-14.313934516802506
 10
-14.828705822238074
 20
-14.399338864511726
 10
-14.83840698664887
 20
-14.459832055680263
 10
-14.845574715167078
 20
-14.50744893394249
 10
-14.850917087572462
 20
-14.549202144188952
 10
-14.854802947242487
 20
-14.58932881514257
 10
-14.857263346657575
 20
-14.630446643744206
 10
-14.85807575479199
 20
-14.674167811715453
 10
-14.856849788395646
 20
-14.721440586689901
 10
-14.853097819312794
 20
-14.772749683823251
 10
-14.846290111094572
 20
-14.828240698924796
 10
-14.83589740962509
 20
-14.887802329807023
 10
-14.821423867284953
 20
-14.951124424284577
 10
-14.802432486996157
 20
-15.017741816390755
 10
-14.778564616138897
 20
-15.087069592472508
 10
-14.749554531389954
 20
-15.15843303453651
 10
-14.715239821599063
 20
-15.23109411688752
 10
-14.675568057977745
 20
-15.304275623229818
 10
-14.630600103786152
 20
-15.377183462150812
 10
-14.580510332936363
 20
-15.44902745712664
 10
-14.525583979914686
 20
-15.51904069878842
 10
-14.46621181930583
 20
-15.586497429392491
 10
-14.402882362981687
 20
-15.650729356803609
 10
-14.336171760167666
 20
-15.711140252165114
 10
-14.266731585063138
 20
-15.767218661730183
 10
-14.195274694131943
 20
-15.818548552187032
 10
-14.122559326329608
 20
-15.864817705088756
 10
-14.049371599530659
 20
-15.905823675349287
 10
-13.976506518930735
 20
-15.941477126929989
 10
-13.904747549134258
 20
-15.971802351003467
 10
-13.834844697041106
 20
-15.996934751963686
 10
-13.76749088505468
 20
-16.017115046385587
 10
-13.703296126094065
 20
-16.03267984768985
 10
-13.642758578995974
 20
-16.04404818789549
 10
-13.586230851102451
 20
-16.051703333164816
 10
-13.533878716174955
 20
-16.056168948658154
 10
-13.485627339026077
 20
-16.05797822118977
 10
-13.441086382979156
 20
-16.057633930546213
 10
-13.399438492969777
 20
-16.055556746077432
 10
-13.359262411711079
 20
-16.052018688024724
 10
-13.318235558063888
 20
-16.04706065266836
 10
-13.27260627613801
 20
-16.04040420156255
 10
-13.216210725461824
 20
-16.031413965435082
 10
-13.138572432943588
 20
-16.01934184370462
 10
-13.021229244230659
 20
-16.004735002738897
 10
-12.83159205076209
 20
-15.995185766691455
 10
-12.520786561096454
 20
-16.02433967314871
 10
-12.070344998563446
 20
-16.182881175959885
 10
-11.624212994962226
 20
-16.538659576760658
 10
-11.369413781444786
 20
-16.942528825604494
 10
-11.271830096451335
 20
-17.239054418245512
 10
-11.238941667810526
 20
-17.42606191626968
 10
-11.227070968831008
 20
-17.543713394144177
 10
-11.221564271903352
 20
-17.62209143237664
 10
-11.217779913433686
 20
-17.67907354459328
 10
-11.214116002982903
 20
-17.725040004872533
 10
-11.209820396250553
 20
-17.766141496300257
 10
-11.204329728676656
 20
-17.80609757130373
 10
-11.19708730641183
 20
-17.84716347878535
 10
-11.187511669831274
 20
-17.890664311946306
 10
-11.175010818031614
 20
-17.93730332531645
 10
-11.159007718883403
 20
-17.987349189989303
 10
-11.138965901283242
 20
-18.04075621965002
 10
-11.114411717581877
 20
-18.097246270370885
 10
-11.084952480623787
 20
-18.156368038574293
 10
-11.050290515167083
 20
-18.217542611909437
 10
-11.010233388036847
 20
-18.280100368221934
 10
-10.964700607665582
 20
-18.343312193642667
 10
-10.913727056766032
 20
-18.406416755198418
 10
-10.857463390471503
 20
-18.46864482608368
 10
-10.796173610278254
 20
-18.529241212681693
 10
-10.730230013235017
 20
-18.587484555003904
 10
-10.660105713860911
 20
-18.642705099868905
 10
-10.586364940130126
 20
-18.694300439733784
 10
-10.509651311475587
 20
-18.741749145890157
 10
-10.430674313315459
 20
-18.784622187778613
 10
-10.350194186423872
 20
-18.822592010529906
 10
-10.269005447808125
 20
-18.855439133384984
 10
-10.18791924946238
 20
-18.883056126670645
 10
-10.107744758381045
 20
-18.905448819210932
 10
-10.029269699796586
 20
-18.92273457567747
 10
-9.953240137066551
 20
-18.935137457255554
 10
-9.880339452160245
 20
-18.942980029275823
 10
-9.811166317480199
 20
-18.94667149170102
 10
-9.746211173957022
 20
-18.946691660513352
 10
-9.685830283877547
 20
-18.943570085527046
 10
-9.630215686788938
 20
-18.937859197780412
 10
-9.579358124180294
 20
-18.930099748950354
 10
-9.532997773183903
 20
-18.920775795771526
 10
-9.490553563992364
 20
-18.91025488127458
 10
-9.451014135576067
 20
-18.898706591587004
 10
-9.412758209163455
 20
-18.885989134234702
 10
-9.373240628768167
 20
-18.871489742919717
 10
-9.32841257470358
 20
-18.853905972097376
 10
-9.271594786301568
 20
-18.83098703473581
 10
-9.191196929955565
 20
-18.799429403940998
 10
-9.0660902735476
 20
-18.75591053821425
 10
-8.85755672513305
 20
-18.703406204752646
 10
-8.50714397581422
 20
-18.675330270512397
 10
-8.001804324148326
 20
-18.77337265676407
 10
-7.5172623090447255
 20
-19.061842381429717
 10
-7.231106575947002
 20
-19.39091855540884
 10
-7.099239042886251
 20
-19.633506163767947
 10
-7.037759895180808
 20
-19.789796124691925
 10
-7.005009472332431
 20
-19.890606706741703
 10
-6.984347679587876
 20
-19.959454794073583
 10
-6.968886070366726
 20
-20.010762907562206
 10
-6.955360365413591
 20
-20.053105781171553
 10
-6.941911034766011
 20
-20.09161433080358
 10
-6.927267532676551
 20
-20.12936772278662
 10
-6.9104397960269734
 20
-20.168174958453307
 10
-6.8906011587613945
 20
-20.209023579403496
 10
-6.867046538761184
 20
-20.252347919281455
 10
-6.839180814972777
 20
-20.29819746039513
 10
-6.80651896274069
 20
-20.346348264992642
 10
-6.76869006155699
 20
-20.39638093902466
 10
-6.725441677001194
 20
-20.447738268401835
 10
-6.676643030196158
 20
-20.499770062239033
 10
-6.622286239029768
 20
-20.55176960272337
 10
-6.562485331838388
 20
-20.60300429845955
 10
-6.497472945506996
 20
-20.652742074925996
 10
-6.427594735711485
 20
-20.700274395175526
 10
-6.353301596856587
 20
-20.74493641192589
 10
-6.275139835883203
 20
-20.786124510231218
 10
-6.193739477947568
 20
-20.823311350764467
 10
-6.109800907607197
 20
-20.85605843311524
 10
-6.02408006834435
 20
-20.88402614520886
 10
-5.93737245630554
 20
-20.906981235273577
 10
-5.850496150455191
 20
-20.92480162729546
 10
-5.764274119676228
 20
-20.93747849248677
 10
-5.679516035682358
 20
-20.945115481829983
 10
-5.5969997958427316
 20
-20.947925012065852
 10
-5.517452917324636
 20
-20.946221472299488
 10
-5.4415338955746515
 20
-20.940411171030217
 10
-5.369813513266789
 20
-20.930978759883427
 10
-5.3027559186751665
 20
-20.91846972925971
 10
-5.240699027006464
 20
-20.90346833859099
 10
-5.183833366441336
 20
-20.8865699645302
 10
-5.132177766697038
 20
-20.86834623180603
 10
-5.085549032006143
 20
-20.849300276843916
 10
-5.043520479137508
 20
-20.82980781470645
 10
-5.005359984235073
 20
-20.81003687529772
 10
-4.969929898820167
 20
-20.789834380883097
 10
-4.935514252174192
 20
-20.768560014432722
 10
-4.899502335855176
 20
-20.744836017590053
 10
-4.857776270287979
 20
-20.71616809946452
 10
-4.803460832205325
 20
-20.67840152785468
 10
-4.724256846949168
 20
-20.625141146078512
 10
-4.596733473603288
 20
-20.548232943845612
 10
-4.37602424400687
 20
-20.444839149034543
 10
-3.994574923484305
 20
-20.34882671451331
 10
-3.4506875196870217
 20
-20.375993364600102
 10
-2.94887473350232
 20
-20.587500959045244
 10
-2.6468590051207856
 20
-20.839509830952622
 10
-2.4928677466898987
 20
-21.02842656700669
 10
-2.4113423757289842
 20
-21.153048780957064
 10
-2.3630908643912703
 20
-21.23540004810595
 10
-2.3305406469360506
 20
-21.29299313874094
 10
-2.305385304388957
 20
-21.336926301826566
 10
-2.2832331453689285
 20
-21.37392586930931
 10
-2.2614563208350207
 20
-21.40802580061635
 10
-2.2383004507051965
 20
-21.441600157074973
 10
-2.212497321930865
 20
-21.475970376186265
 10
-2.183088366590048
 20
-21.51176798339923
 10
-2.1493410584379085
 20
-21.549159245637576
 10
-2.11070795251051
 20
-21.58799078624245
 10
-2.066805692411112
 20
-21.627888780622772
 10
-2.0174032244541262
 20
-21.66833004278576
 10
-1.962413884350416
 20
-21.708695489823015
 10
-1.9018886225142302
 20
-21.748312106262205
 10
-1.8360089426759958
 20
-21.786487035845983
 10
-1.7650788197959388
 20
-21.82253596922726
 10
-1.6895152471201678
 20
-21.85580712463086
 10
-1.609837286646797
 20
-21.885701589391825
 10
-1.5266536355181295
 20
-21.911690465620538
 10
-1.4406488102656023
 20
-21.933329063618082
 10
-1.3525681108994159
 20
-21.950268265031227
 10
-1.2632015678953776
 20
-21.96226310538807
 10
-1.1733671026669208
 20
-21.969178584430846
 10
-1.0838931489142667
 20
-21.97099269048136
 10
-0.9956009895169606
 20
-21.967796613287298
 10
-0.9092870614857704
 20
-21.959792111494632
 10
-0.8257054690764585
 20
-21.947285989679553
 10
-0.7455509205351754
 20
-21.93068161879501
 10
-0.6694422635248569
 20
-21.910467394195077
 10
-0.5979067318671298
 20
-21.887201954871166
 10
-0.5313649210369458
 20
-21.861495867822384
 10
-0.47011636286384073
 20
-21.833989283716797
 10
-0.4143253369033115
 20
-21.805324747128328
 10
-0.36400617373388755
 20
-21.776113817794485
 10
-0.3190066537837408
 20
-21.74689529307399
 10
-0.27898694788723755
 20
-21.718081378220695
 10
-0.243389400933671
 20
-21.689885704563622
 10
-0.21139030557926164
 20
-21.66222287467698
 10
-0.18181638320161686
 20
-21.634561821282908
 10
-0.152990721491697
 20
-21.605702262786362
 10
-0.12243259808587736
 20
-21.57342123532609
 10
-0.0862404134024346
 20
-21.53390276322368
 10
-0.03775271582188355
 20
-21.48083759581592
 10
0.03549446785752064
 20
-21.40422027575705
 10
0.1586969385975432
 20
-21.290082689083068
 10
0.38276029915082843
 20
-21.128733984525205
 10
0.7833585068642137
 20
-20.956404916047962
 10
1.3450781004235173
 20
-20.906737576064558
 10
1.8429123914299441
 20
-21.03766309590611
 10
2.146441678154901
 20
-21.21499703250277
 10
2.311543136667419
 20
-21.352781118099173
 10
2.4053782110746766
 20
-21.4462720051562
 10
2.464121833841572
 20
-21.509587770575514
 10
2.505368738095812
 20
-21.554889334103944
 10
2.538128106984475
 20
-21.590181927910102
 10
2.56744116653677
 20
-21.62039146363124
 10
2.5963906672992234
 20
-21.648448121179843
 10
2.627003846246912
 20
-21.676008285709695
 10
2.6606799036303537
 20
-21.70390315432122
 10
2.6984036249145387
 20
-21.732418748298247
 10
2.7408580068504493
 20
-21.76147603955325
 10
2.788487166099035
 20
-21.790751640955378
 10
2.8415340676498895
 20
-21.81976236919579
 10
2.9000653806941044
 20
-21.847927178270538
 10
2.9639898870559103
 20
-21.874614383869858
 10
3.0330738990777117
 20
-21.899178892386686
 10
3.10695557677264
 20
-21.920992273173333
 10
3.1851591701132325
 20
-21.939467396584934
 10
3.2671097157457236
 20
-21.954078685709845
 10
3.3521484203817673
 20
-21.96437861746347
 10
3.4395487787824406
 20
-21.97001085585572
 10
3.5285333562655543
 20
-21.97072024601741
 10
3.6182910886101247
 20
-21.96635980526963
 10
3.707994901815092
 20
-21.956894794242395
 10
3.7968194222231952
 20
-21.942403921927024
 10
3.883958529324871
 20
-21.923077723350495
 10
3.9686424964437954
 20
-21.899214139611573
 10
4.0501544671126535
 20
-21.87121132077933
 10
4.127846026911841
 20
-21.839557656110408
 10
4.20115165248196
 20
-21.804819005586445
 10
4.269601853235499
 20
-21.767623051798978
 10
4.332834870937126
 20
-21.72864059701317
 10
4.39060687533149
 20
-21.68856347410851
 10
4.442800704554232
 20
-21.648078485424826
 10
4.489433374075627
 20
-21.60783636941443
 10
4.530662869513911
 20
-21.56841411712205
 10
4.56679525052802
 20
-21.530267835580435
 10
4.598294038331568
 20
-21.493671452825254
 10
4.625795692927612
 20
-21.458633269423416
 10
4.650138719404806
 20
-21.424776534502847
 10
4.67242193117584
 20
-21.39115966621835
 10
4.6941254078944175
 20
-21.355992295928427
 10
4.717370576805315
 20
-21.316167657415324
 10
4.74550377788285
 20
-21.26647051988379
 10
4.784472096672626
 20
-21.198243613762223
 10
4.846214290026316
 20
-21.09739379819376
 10
4.956985252831668
 20
-20.943175618802048
 10
5.173562747905104
 20
-20.718355265418005
 10
5.578361206653354
 20
-20.465034880991713
 10
6.134678715709694
 20
-20.33805903986064
 10
6.609301120406225
 20
-20.390657350963078
 10
6.901976596511686
 20
-20.499244036861747
 10
7.068690545781274
 20
-20.590128095830654
 10
7.168075434897112
 20
-20.65420170627792
 10
7.232787222097649
 20
-20.6987643047831
 10
7.279697140278558
 20
-20.731333340046024
 10
7.31791957686348
 20
-20.75712839871832
 10
7.35273228382849
 20
-20.77939631888503
 10
7.387394576419778
 20
-20.800015747402963
 10
7.4240167721679
 20
-20.819957568185856
 10
7.463997404801005
 20
-20.839593359890724
 10
7.508255407376667
 20
-20.85889874960111
 10
7.557360609062291
 20
-20.87759010911872
 10
7.611611775120545
 20
-20.895219523494056
 10
7.671086758351097
 20
-20.911243260180964
 10
7.735677551845614
 20
-20.925072920820323
 10
7.8051171411802125
 20
-20.936114827589574
 10
7.8790019747953455
 20
-20.943801027589934
 10
7.9568121941853045
 20
-20.947613994918083
 10
8.037930816247327
 20
-20.9471063186324
 10
8.121662503308503
 20
-20.94191618059057
 10
8.207252218983283
 20
-20.93177912995529
 10
8.293903857909292
 20
-20.91653647968377
 10
8.380798803886034
 20
-20.89614054132349
 10
8.467114285343365
 20
-20.870656851108397
 10
8.552041342748458
 20
-20.84026350549181
 10
8.634802189580284
 20
-20.805247706331517
 10
8.714666730760172
 20
-20.76599960667847
 10
8.790967996069464
 20
-20.72300354092735
 10
8.863116248611378
 20
-20.676826711938602
 10
8.930611538175013
 20
-20.628105386155397
 10
8.993054485506507
 20
-20.577528607639845
 10
9.050155105799533
 20
-20.525819372076825
 10
9.101739509096095
 20
-20.47371308519857
 10
9.14775435467208
 20
-20.421932939940767
 10
9.188268992849494
 20
-20.371161538834922
 10
9.223475316442027
 20
-20.322007587861652
 10
9.253685498728084
 20
-20.27496566470341
 10
9.279328088980028
 20
-20.230365683920795
 10
9.300943534900613
 20
-20.188306312253545
 10
9.31918148430141
 20
-20.148562410364065
 10
9.334805098243894
 20
-20.1104489995803
 10
9.348714369687857
 20
-20.07261010695521
 10
9.36201709745177
 20
-20.032673795873155
 10
9.376219386388794
 20
-19.98666251012173
 10
9.39372595124763
 20
-19.927950850670452
 10
9.419180445503192
 20
-19.8454174144848
 10
9.463158750611724
 20
-19.720471522869683
 10
9.552127750527331
 20
-19.5246975131017
 10
9.748655876880182
 20
-19.233228735149606
 10
10.140382620356526
 20
-18.899266714115626
 10
10.668024337828296
 20
-18.700294443603127
 10
11.103721632105069
 20
-18.6817445210893
 10
11.375602323636487
 20
-18.729897232096217
 10
11.536126357101852
 20
-18.77927609567379
 10
11.635362798566822
 20
-18.81652515385427
 10
11.70207281781494
 20
-18.84329719413126
 10
11.751827271916104
 20
-18.863198906785318
 10
11.793365402663284
 20
-18.879024434707187
 10
11.83185811961038
 20
-18.892519012568734
 10
11.870504984248944
 20
-18.904609116508613
 10
11.911337625030097
 20
-18.9156485778938
 10
11.955643550922227
 20
-18.92560680529274
 10
12.004201949152757
 20
-18.93420334590517
 10
12.057422558455613
 20
-18.941003767069923
 10
12.115432705172633
 20
-18.945489238336997
 10
12.178135758986489
 20
-18.947108274463087
 10
12.245253462666449
 20
-18.945316096968853
 10
12.316359015805117
 20
-18.93960507142475
 10
12.390904798583634
 20
-18.92952840399825
 10
12.468246952480579
 20
-18.91471848236872
 10
12.547668071862127
 20
-18.894900748378426
 10
12.62839868744761
 20
-18.869903680956053
 10
12.709637872637659
 20
-18.839665278042222
 10
12.790573085457979
 20
-18.804236311839418
 10
12.870399221160907
 20
-18.763780565156996
 10
12.94833676369154
 20
-18.718572220157874
 10
13.023648870586092
 20
-18.668990552590294
 10
13.095657194531299
 20
-18.61551207628483
 10
13.163756228764777
 20
-18.558700277981266
 10
13.227425957956585
 20
-18.499193076002275
 10
13.286242597651645
 20
-18.43768812251459
 10
13.33988721086873
 20
-18.37492604184316
 10
13.388151997373475
 20
-18.31167164821427
 10
13.43094405674674
 20
-18.248693103304838
 10
13.46828642771097
 20
-18.18673883832494
 10
13.50031620011924
 20
-18.12651184670961
 10
13.527279479704108
 20
-18.068640601003267
 10
13.549522958299196
 20
-18.013645273407214
 10
13.567481809976819
 20
-17.961896987776033
 10
13.581663623327126
 20
-17.9135662163215
 10
13.59262817685769
 20
-17.868553619170406
 10
13.600963313395544
 20
-17.82639156377461
 10
13.60725866417299
 20
-17.78609515833108
 10
13.612083499420665
 20
-17.74592357177095
 10
13.615988394369372
 20
-17.702976651758007
 10
13.619590689794872
 20
-17.652479745466255
 10
13.623928716853433
 20
-17.586467153739292
 10
13.631670950686345
 20
-17.491335679648554
 10
13.651051219700413
 20
-17.343682411844693
 10
13.707824649654746
 20
-17.106660011034812
 10
13.870588866909403
 20
-16.74856814950862
 10
14.230936858847567
 20
-16.340277983581792
 10
14.709175309594324
 20
-16.07981777718986
 10
15.094507506159509
 20
-16.000817334152856
 10
15.33822053717874
 20
-15.998209778616859
 10
15.486484344846899
 20
-16.01217135646285
 10
15.580953483368388
 20
-16.02579198105984
 10
15.646276303431048
 20
-16.036251900960604
 10
15.696308732996172
 20
-16.043976541352304
 10
15.73904780493002
 20
-16.049726139024504
 10
15.779285832789618
 20
-16.053961291429733
 10
15.81997277055169
 20
-16.0567905720142
 10
15.862932477559065
 20
-16.058046354695794
 10
15.909256357613506
 20
-16.057372950572077
 10
15.959531126073706
 20
-16.054301313294417
 10
16.013978194591193
 20
-16.048307804372456
 10
16.07254431413558
 20
-16.03885962788599
 10
16.134964501043182
 20
-16.025449937658532
 10
16.20080877110641
 20
-16.0076249849405
 10
16.26951917257712
 20
-15.985004986086329
 10
16.340440842895575
 20
-15.957299857616047
 10
16.41284924218276
 20
-15.924320596824211
 10
16.48597479589073
 20
-15.885986842868727
 10
16.559025625380446
 20
-15.84233099882228
 10
16.631208705170103
 20
-15.793499200833631
 10
16.701749573776645
 20
-15.739749365985032
 10
16.769910592524713
 20
-15.681446521555474
 10
16.83500766453326
 20
-15.619055605393
 10
16.89642527669064
 20
-15.553131922924837
 10
16.953629699610207
 20
-15.484309445642126
 10
17.006180166807805
 20
-15.413287134233775
 10
17.05373784919064
 20
-15.340813462686825
 10
17.096072439922356
 20
-15.267669302973907
 10
17.133066163606316
 20
-15.194649297548528
 10
17.164715017899514
 20
-15.122541790518959
 10
17.191127039441763
 20
-15.052107295599638
 10
17.212517351745795
 20
-14.984055329871559
 10
17.229199689716364
 20
-14.91901920416225
 10
17.24157398830278
 20
-14.857527977389196
 10
17.250109449191637
 20
-14.79997415490943
 10
17.25532222847134
 20
-14.74657466132786
 10
17.257746481205732
 20
-14.697320813276221
 10
17.257896923367976
 20
-14.651909815387562
 10
17.256220361690623
 20
-14.609644422904116
 10
17.253033118312313
 20
-14.569276214629337
 10
17.248442313017566
 20
-14.528745764392792
 10
17.24225666777018
 20
-14.48472757005399
 10
17.233925340198592
 20
-14.431792016308284
 10
17.22266890665384
 20
-14.360797217114753
 10
17.20843594576849
 20
-14.255760145209631
 10
17.196015071244044
 20
-14.088272953567245
 10
17.20956879464044
 20
-13.812493892384166
 10
17.324605400712752
 20
-13.391848185014108
 10
17.636000348751697
 20
-12.92171104248529
 10
18.048756645480395
 20
-12.614119247148562
 10
18.376649314860124
 20
-12.487376395927395
 10
18.587312326417052
 20
-12.444201850088715
 10
18.71891165719166
 20
-12.429129249404165
 10
18.805039965652437
 20
-12.422678369766597
 10
18.866175178384754
 20
-12.418675304334524
 10
18.914193171737775
 20
-12.415067570710882
 10
18.956088331527436
 20
-12.410985035346437
 10
18.996073628186053
 20
-12.405844444104412
 10
19.036708037353844
 20
-12.399093578546596
 10
19.079513802179033
 20
-12.390156742782313
 10
19.125328546800393
 20
-12.378442331885092
 10
19.17451632608006
 20
-12.36336708428601
 10
19.227101207987037
 20
-12.344382147019488
 10
19.282856910791867
 20
-12.320996302542053
 10
19.34137072199667
 20
-12.292795150523286
 10
19.402091897318755
 20
-12.259456159479681
 10
19.464370380395646
 20
-12.220759824493758
 10
19.52748924082072
 20
-12.176597223358845
 10
19.590692816862955
 20
-12.126974243078251
 10
19.653211712158868
 20
-12.07201271625873
 10
19.714285288174974
 20
-12.0119486821542
 10
19.773181981608417
 20
-11.94712797357677
 10
19.82921758175361
 20
-11.877999326977706
 10
19.881771482654365
 20
-11.805105215697928
 10
19.93030085177251
 20
-11.729070612586877
 10
19.97435261421737
 20
-11.650589895008046
 10
20.013573128354775
 20
-11.570412110000635
 10
20.047715417182765
 20
-11.489324817349756
 10
20.076643814263306
 20
-11.408136720517632
 10
20.100335877914958
 20
-11.327659276032032
 10
20.118881417238715
 20
-11.248687435787291
 10
20.132478451652258
 20
-11.171979616000025
 10
20.141425882914536
 20
-11.098236889019066
 10
20.146112582073762
 20
-11.02808123975937
 10
20.147002463593836
 20
-10.962032483309828
 10
20.144614904255814
 20
-10.900483045228775
 10
20.139499516245372
 20
-10.84366915541826
 10
20.132203723476234
 20
-10.791635904884867
 10
20.123230692260208
 20
-10.744191689487693
 10
20.112983738563038
 20
-10.700844080077843
 10
20.101691106063456
 20
-10.660702606652224
 10
20.089301735388563
 20
-10.622321115613302
 10
20.075338674539204
 20
-10.583426157501753
 10
20.058695644130182
 20
-10.540422096656295
 10
20.037381621384956
 20
-10.487441015918797
 10
20.00833602758874
 20
-10.414435577290925
 10
19.967984094676627
 20
-10.303284755204086
 10
19.916476032510506
 20
-10.12052706702765
 10
19.875738261825656
 20
-9.811026765399884
 10
19.930072120967946
 20
-9.336599910003319
 10
20.177656704350884
 20
-8.822485225147215
 10
20.514701948957452
 20
-8.484204997438086
 10
20.782078613175774
 20
-8.323084787348012
 10
20.957079078929297
 20
-8.249407857161112
 10
21.06913930959495
 20
-8.211654864650892
 10
21.14432689142647
 20
-8.188845477843046
 10
21.199038244140457
 20
-8.172476288312023
 10
21.243036932515462
 20
-8.158675740073814
 10
21.282152061318662
 20
-8.145341890911185
 10
21.31988456562419
 20
-8.1310978227099
 10
21.35830927450062
 20
-8.114898959005538
 10
21.398588671357274
 20
-8.095883557603381
 10
21.44127664607073
 20
-8.073317971443915
 10
21.486506731860928
 20
-8.046579850855252
 10
21.53411501181331
 20
-8.015156341346074
 10
21.583724919131882
 20
-7.978647563449128
 10
21.63480908424937
 20
-7.936771099989331
 10
21.686736870383434
 20
-7.889365559181599
 10
21.738812623795333
 20
-7.8363923374996345
 10
21.79030759996412
 20
-7.777935204566751
 10
21.84048731625758
 20
-7.714197581037467
 10
21.88863535591319
 20
-7.645497513873564
 10
21.934074205454372
 20
-7.572260431891507
 10
21.976183434780555
 20
-7.4950098155741065
 10
22.014415360705577
 20
-7.41435595157516
 10
22.04830823183712
 20
-7.330982969784592
 10
22.077496911570492
 20
-7.245634381555613
 10
22.101721001396033
 20
-7.159097352306402
 10
22.12083032841603
 20
-7.072185949803089
 10
22.134787711378795
 20
-6.98572360991627
 10
22.143668912396663
 20
-6.9005250527172874
 10
22.1476596707482
 20
-6.817377860659276
 10
22.147049693882124
 20
-6.737023892962105
 10
22.142223440017094
 20
-6.660140649313114
 10
22.133647453891545
 20
-6.587322600330212
 10
22.121853893112963
 20
-6.519062352890986
 10
22.107419677049016
 20
-6.455731282447521
 10
22.09094035441129
 20
-6.39755888312803
 10
22.072997238458
 20
-6.344609452176698
 10
22.054115462880013
 20
-6.296753634644647
 10
22.03470913207184
 20
-6.253630409209224
 10
22.015007273796744
 20
-6.214591488677862
 10
21.994950173303078
 20
-6.17861313248997
 10
21.97403882468365
 20
-6.144146262511519
 10
21.951109474483754
 20
-6.108845888459486
 10
21.923991385049757
 20
-6.069054524408977
 10
21.88900392595787
 20
-6.018761219934397
 10
21.840347304771477
 20
-5.947401339180987
 10
21.770080697839912
 20
-5.83511522649537
 10
21.672489677683284
 20
-5.643493362838344
 10
21.567143493483254
 20
-5.308113675851882
 10
21.55027910116306
 20
-4.793627460954591
 10
21.723695545817158
 20
-4.257043373254342
 10
21.98084545207747
 20
-3.9048358242500574
 10
22.188007596001004
 20
-3.722293664380273
 10
22.326698643933334
 20
-3.627578139192283
 10
22.4176940395373
 20
-3.5732163729512556
 10
22.480218280158745
 20
-3.537752473794665
 10
22.526799460395836
 20
-3.511261390064698
 10
22.565070957260975
 20
-3.4886526269919957
 10
22.599621259538097
 20
-3.4669715407141037
 10
22.63316960940056
 20
-3.444294261750903
 10
22.667259342971
 20
-3.4192530092675706
 10
22.702669291616715
 20
-3.3908220947730356
 10
22.73966600379917
 20
-3.358217465701319
 10
22.778165294308845
 20
-3.3208479110767675
 10
22.81784091184154
 20
-3.278290397662362
 10
22.858201439854508
 20
-3.2302766286572626
 10
22.898647462835985
 20
-3.176684490498542
 10
22.938515990505906
 20
-3.1175311642915178
 10
22.977116270007492
 20
-3.052966225052905
 10
23.01375945123317
 20
-2.9832638591120473
 10
23.047783580874988
 20
-2.908813772567807
 10
23.078574802110126
 20
-2.830110619089826
 10
23.105585270209854
 20
-2.747741930656908
 10
23.12834806884593
 20
-2.662374634115902
 10
23.146489273975433
 20
-2.574740302616519
 10
23.159737229534624
 20
-2.485619336134016
 10
23.16792905148227
 20
-2.395824295865318
 10
23.17101435070102
 20
-2.30618263660978
 10
23.169056151572672
 20
-2.217519090852873
 10
23.162228974470107
 20
-2.1306379585194524
 10
23.150814040535177
 20
-2.0463055466495095
 10
23.13519153922656
 20
-1.9652329819295071
 10
23.115829865057673
 20
-1.8880595829951212
 10
23.093271668547214
 20
-1.8153369232905265
 10
23.068116461186182
 20
-1.747513629644067
 10
23.04099933949939
 20
-1.6849208301302185
 10
23.012565107522367
 20
-1.6277579577614056
 10
22.98343661108103
 20
-1.5760782800101443
 10
22.954175333084915
 20
-1.529772956024889
 10
22.92523103038556
 20
-1.4885514247512779
 10
22.896875052133442
 20
-1.451914096330983
 10
22.8691083024879
 20
-1.4191098126103374
 10
22.84152839109071
 20
-1.389063511333746
 10
22.813129215589875
 20
-1.36024472869468
 10
22.78198662362657
 20
-1.330414792238717
 10
22.744752546981534
 20
-1.2961140981675952
 10
22.695846540161284
 20
-1.2515643143053858
 10
22.62629696258196
 20
-1.1861976882188299
 10
22.522940389411197
 20
-1.0789852770781077
 10
22.3730264690009
 20
-0.8868169724550302
 10
22.194540807609975
 20
-0.536296159395957
 10
22.099999999999998
 20
-4.1143814559312504e-15
  0
LWPOLYLINE
  5
31
330
17
100
AcDbEntity
  8
0
100
AcDbPolyline
 90
1450
 70
0
 10
25.100000000000005
 20
0.0
 10
24.988834367904577
 20
0.5788765391104985
 10
24.787790089166638
 20
0.9400191113562245
 10
24.62533121272828
 20
1.1299486984682092
 10
24.51456503458386
 20
1.2345153239562896
 10
24.43877277155648
 20
1.2992049457457118
 10
24.383331555152797
 20
1.3449516635886836
 10
24.338868147991633
 20
1.381936334384277
 10
24.299759603127036
 20
1.4156241412646722
 10
24.2627258875547
 20
1.449252124083078
 10
24.2259377143367
 20
1.484898307571172
 10
24.18848322693911
 20
1.5239703345641065
 10
24.15004535931682
 20
1.5674428355456098
 10
24.11069959215433
 20
1.6159796525004737
 10
24.07078135522502
 20
1.6700007065623856
 10
24.030794791825496
 20
1.729721350187035
 10
23.991346919138728
 20
1.7951778637092053
 10
23.95309800284056
 20
1.866246102109891
 10
23.916722769404156
 20
1.9426570101448704
 10
23.882879261506954
 20
2.0240110195398615
 10
23.852183420841843
 20
2.1097924173921783
 10
23.825188246900602
 20
2.1993842514794255
 10
23.802366844098298
 20
2.2920840298694944
 10
23.78409895403015
 20
2.387120284400548
 10
23.77066074508523
 20
2.4836699506406856
 10
23.76221774034884
 20
2.580876444314046
 10
23.758820833187148
 20
2.6778682717105364
 10
23.76040538580457
 20
2.773777992110792
 10
23.7667934424601
 20
2.8677613510206292
 10
23.777699127156467
 20
2.9590164246987873
 10
23.792737347124522
 20
3.04680266324959
 10
23.811436002729234
 20
3.130459800283248
 10
23.833252031859065
 20
3.209426728081705
 10
23.857591823592394
 20
3.2832606474827455
 10
23.883836872290555
 20
3.351657143982307
 10
23.911376093421946
 20
3.4144724132467443
 10
23.9396471309724
 20
3.4717498457834273
 10
23.96819050688608
 20
3.523754947407474
 10
23.996723047038696
 20
3.571025867781757
 10
24.025241471375068
 20
3.614453232850343
 10
24.054174760363303
 20
3.6554161072200584
 10
24.08461710477719
 20
3.6960291616482297
 10
24.118694018574804
 20
3.7396202542483423
 10
24.160136580019934
 20
3.7917110098812175
 10
24.21510135769711
 20
3.862153241782507
 10
24.29280242347374
 20
3.9699877916087516
 10
24.402659049709648
 20
4.154083087574243
 10
24.53216529653177
 20
4.487395365034966
 10
24.57958709911448
 20
5.030994307388183
 10
24.405710203664526
 20
5.621573752676834
 10
24.12623632797932
 20
6.001673106756051
 10
23.903443184902713
 20
6.1900864726493054
 10
23.75567085406853
 20
6.285179734844374
 10
23.657698483622596
 20
6.339699501302622
 10
23.588267860779535
 20
6.376095922652004
 10
23.534181483204446
 20
6.404360763058633
 10
23.487652567347364
 20
6.429500267935708
 10
23.444117511462114
 20
6.4543802480550205
 10
23.4009386255006
 20
6.4808497580367
 10
23.35666743920112
 20
6.510212196270348
 10
23.310617967799665
 20
6.543434101267976
 10
23.262609318320006
 20
6.581242000543446
 10
23.212802666318865
 20
6.624169118580282
 10
23.16159242211507
 20
6.672578993864391
 10
23.109529582274693
 20
6.726678531430014
 10
23.057264912602154
 20
6.7865265800672985
 10
23.005504866192943
 20
6.852041109521741
 10
22.95497608539727
 20
6.923006577243805
 10
22.906396031619998
 20
6.9990823041608445
 10
22.860448286241688
 20
7.079812259384708
 10
22.81776166708398
 20
7.164636413538121
 10
22.778892671926318
 20
7.252903676275722
 10
22.744310986864754
 20
7.343886344006895
 10
22.71438793742584
 20
7.436795927725148
 10
22.6893878475152
 20
7.53080019773681
 10
22.66946232669909
 20
7.625041267359647
 10
22.654647544603367
 20
7.718654540447931
 10
22.644864583715155
 20
7.810788369991577
 10
22.639922999000156
 20
7.900624322368984
 10
22.63952776601256
 20
7.987398023954964
 10
22.643289883493956
 20
8.07042070079074
 10
22.65074103339173
 20
8.149101737501107
 10
22.661352924079686
 20
8.222972930670444
 10
22.674562304886244
 20
8.291715688414598
 10
22.6898032301058
 20
8.355193406432225
 10
22.706549115946682
 20
8.413492966394704
 10
22.724368720461197
 20
8.466982421908646
 10
22.743002783788175
 20
8.516397841102732
 10
22.762472280645003
 20
8.56298394662276
 10
22.783235631711236
 20
8.608737375491266
 10
22.806419886316622
 20
8.656853989281302
 10
22.83414993559747
 20
8.712601575213558
 10
22.869935585164054
 20
8.78512122304054
 10
22.91867996100678
 20
8.891303565492844
 10
22.98389669427308
 20
9.063929439540651
 10
23.05163764419888
 20
9.363548927540652
 10
23.03955476246741
 20
9.854531536941275
 10
22.80954231669065
 20
10.429802287136427
 10
22.449788250996356
 20
10.816714981739093
 10
22.15988955280544
 20
10.994580778059591
 10
21.971581599334563
 20
11.07261007996667
 10
21.85053091011001
 20
11.11172144640949
 10
21.767506225014557
 20
11.135403852285938
 10
21.70484537246206
 20
11.152786862669162
 10
21.652351358706763
 20
11.167912824947571
 10
21.6040864834334
 20
11.182936361218257
 10
21.55656657512191
 20
11.199249374640068
 10
21.507781188477438
 20
11.217894021607112
 10
21.456648580000365
 20
11.239717918873009
 10
21.402698880720664
 20
11.265430948716482
 10
21.345880170908636
 20
11.295623222468423
 10
21.28643299481912
 20
11.330767839532378
 10
21.224804334506743
 20
11.371218326879713
 10
21.161585146096854
 20
11.417205074225938
 10
21.097462496627685
 20
11.468832706560473
 10
21.033181137365546
 20
11.526079274862024
 10
20.969511495161615
 20
11.588797648040892
 10
20.90722231031288
 20
11.656719242229475
 10
20.84705689174121
 20
11.729460092502462
 10
20.78971241088009
 20
11.80652919690698
 10
20.735821932825758
 20
11.887339016252355
 10
20.685939054964518
 20
11.971217983467309
 10
20.64052512967863
 20
12.057424858751283
 10
20.599939113697157
 20
12.145164760319313
 10
20.564430128404716
 20
12.233606706801865
 10
20.53413284448748
 20
12.321902530010632
 10
20.50906583003959
 20
12.409207062183976
 10
20.48913303267291
 20
12.494699580367143
 10
20.474128613567842
 20
12.577606619289778
 10
20.463745428280973
 20
12.65722647147513
 10
20.457587574815964
 20
12.732956028290758
 10
20.455187632930013
 20
12.804321164618793
 10
20.456029544039783
 20
12.871012789853353
 10
20.459578594914895
 20
12.932932273772147
 10
20.465320764994946
 20
12.990252779818746
 10
20.472814886665144
 20
13.043508253541543
 10
20.48176268133055
 20
13.093731836400675
 10
20.492103300992426
 20
13.14268557652123
 10
20.504137856033243
 20
13.193265442582623
 10
20.51867395406137
 20
13.250257685273896
 10
20.537102697355532
 20
13.321828869211135
 10
20.56098258152257
 20
13.422579272264388
 10
20.589289058409975
 20
13.579698545211478
 10
20.606170822100864
 20
13.842317694740059
 10
20.542839153032737
 20
14.270358097572675
 10
20.26786832381011
 20
14.804132871018647
 10
19.833065589885784
 20
15.182676407347703
 10
19.471343571174366
 20
15.339566043539719
 10
19.23969667829925
 20
15.391542098452714
 10
19.095318096103505
 20
15.409131893868569
 10
18.99959963846007
 20
15.416354546017372
 10
18.92974661099339
 20
15.420633842750732
 10
18.872944379122963
 20
15.424429863210822
 10
18.82184171164873
 20
15.42878521041559
 10
18.772114584792487
 20
15.434373669591444
 10
18.72120061862054
 20
15.44179926394724
 10
18.66762273143393
 20
15.451665267234217
 10
18.61061025978649
 20
15.464572780196058
 10
18.549874989776757
 20
15.481099838484958
 10
18.485470905381337
 20
15.501777618046546
 10
18.41770085376572
 20
15.527068977517516
 10
18.34705041984683
 20
15.557350783900402
 10
18.274138114562827
 20
15.592900222585362
 10
18.19967569599937
 20
15.633884920842439
 10
18.124435054851034
 20
15.680356634020956
 10
18.04921959005134
 20
15.732248251810613
 10
17.974838879532278
 20
15.78937390804313
 10
17.902085980468854
 20
15.851431999981497
 10
17.831717017788968
 20
15.918010937484828
 10
17.76443292058395
 20
15.988597450427438
 10
17.700863290558353
 20
16.06258728777644
 10
17.641552463131646
 20
16.13929814793099
 10
17.58694786795753
 20
16.21798469195319
 10
17.537390823181827
 20
16.297855514766205
 10
17.49310991516749
 20
16.378091991643444
 10
17.45421712954731
 20
16.457868989000232
 10
17.4207069167897
 20
16.53637754598171
 10
17.39245840296028
 20
16.612849823001966
 10
17.36924100227588
 20
16.686586919402092
 10
17.35072376229576
 20
16.75699066111929
 10
17.33648888601713
 20
16.823601286781393
 10
17.326050034901886
 20
16.88614436710285
 10
17.3188762098588
 20
16.944592752780817
 10
17.31442214682145
 20
16.99925379343993
 10
17.312165923308676
 20
17.050900405244093
 10
17.31165276105094
 20
17.100980802328113
 10
17.312537262795505
 20
17.151974614216684
 10
17.314592678558835
 20
17.208032235808016
 10
17.317574197210668
 20
17.276182339334476
 10
17.32053492295358
 20
17.368697841672535
 10
17.31914884272302
 20
17.50767379244903
 10
17.296017507177027
 20
17.73204855585172
 10
17.19201693062512
 20
18.093033362841968
 10
16.886009298705964
 20
18.56419385399351
 10
16.38948875136369
 20
18.917216989415117
 10
15.954785996508415
 20
19.041942374385126
 10
15.678121503928352
 20
19.057614737309233
 10
15.511039307763562
 20
19.046683719403404
 10
15.404177401376836
 20
19.033316748181182
 10
15.32891820572728
 20
19.02221155429613
 10
15.269675699402887
 20
19.013502678780362
 10
15.217710572401446
 20
19.006658210847398
 10
15.167919995625683
 20
19.001344381704936
 10
15.117241726297555
 20
18.997535918738983
 10
15.063835902584687
 20
18.9954571318536
 10
15.00664404958704
 20
18.995500065269553
 10
14.945137762694971
 20
18.998153006034745
 10
14.879166765451659
 20
19.00394388621912
 10
14.808861081894369
 20
19.01339657872919
 10
14.734563702359358
 20
19.026997301754047
 10
14.656780958795922
 20
19.04516886269815
 10
14.576143481143468
 20
19.06825111843854
 10
14.49337367432819
 20
19.09648654192836
 10
14.409257379886665
 20
19.13001014427572
 10
14.324618386737153
 20
19.168843238953073
 10
14.240295052174295
 20
19.212890686630516
 10
14.157118657685567
 20
19.26194135360883
 10
14.075893348920538
 20
19.315671574418893
 10
13.997377648637856
 20
19.373651444428234
 10
13.922267617051345
 20
19.43535379199598
 10
13.851181784605147
 20
19.500165700438817
 10
13.784648009620716
 20
19.56740247567756
 10
13.723092425095317
 20
19.636323994422064
 10
13.66683064027439
 20
19.706153430871638
 10
13.616061356839397
 20
19.776098462488452
 10
13.570862548509519
 20
19.84537522110693
 10
13.531190336336184
 20
19.913235522982927
 10
13.49688066575436
 20
19.978998345496738
 10
13.467653842378038
 20
20.042087232915566
 10
13.443121877409684
 20
20.102076513966807
 10
13.4227983453959
 20
20.158751281083262
 10
13.406109855553185
 20
20.212189746273157
 10
13.392406746138231
 20
20.262883301227316
 10
13.380966817869732
 20
20.311922336912115
 10
13.370975946488834
 20
20.3613008648109
 10
13.361442002578983
 20
20.414443536776194
 10
13.350919045247258
 20
20.477162224645383
 10
13.336674595083075
 20
20.559451588330557
 10
13.312146892951798
 20
20.678818013046183
 10
13.25907625600332
 20
20.865308252167058
 10
13.125710659902813
 20
21.15981876480152
 10
12.803244627737334
 20
21.555008635680917
 10
12.265562743423907
 20
21.865439416327643
 10
11.762085259841355
 20
21.9471082566008
 10
11.440348876168072
 20
21.91535099449746
 10
11.252308273057338
 20
21.86806639472943
 10
11.136670065829051
 20
21.82962479551376
 10
11.058283161334343
 20
21.800816169376297
 10
10.99870570568174
 20
21.778569973813916
 10
10.947915829779884
 20
21.760255275455453
 10
10.900157334527606
 20
21.744218359927864
 10
10.851968319713231
 20
21.729606110583457
 10
10.801214858607308
 20
21.716126573970563
 10
10.746591545292254
 20
21.70385999753021
 10
10.687347991208942
 20
21.693123308990543
 10
10.623129767379625
 20
21.684373973332267
 10
10.553879776490264
 20
21.678140701138666
 10
10.479772666277826
 20
21.6749723362011
 10
10.401167814858061
 20
21.67539932882954
 10
10.31857297783768
 20
21.679904265754757
 10
10.232614161871515
 20
21.68889923913298
 10
10.144009203563765
 20
21.702708655825376
 10
10.053543625200923
 20
21.72155659639692
 10
9.962047982283407
 20
21.74555814812374
 10
9.870376306881063
 20
21.774714330649896
 10
9.779385490621005
 20
21.80891035229899
 10
9.68991560014345
 20
21.847917008335052
 10
9.602771209588477
 20
21.891395078750772
 10
9.518703888668325
 20
21.938902615884047
 10
9.438396012726365
 20
21.989905041908578
 10
9.362446069653453
 20
22.04378801278811
 10
9.291355631173513
 20
22.099873059473
 10
9.225518133737072
 20
22.157436103096458
 10
9.165209575063024
 20
22.215729079370387
 10
9.110581169877301
 20
22.27400513080032
 10
9.061653908460428
 20
22.331548187399832
 10
9.018314794833902
 20
22.387708349135835
 10
8.980314246862308
 20
22.44194546856935
 10
8.947263589318881
 20
22.493885005127737
 10
8.918630481391173
 20
22.543393136005232
 10
8.893727851786535
 20
22.590683329493302
 10
8.871686942800359
 20
22.636476229634265
 10
8.851393565441217
 20
22.682253048562384
 10
8.83133848504583
 20
22.730678402623003
 10
8.809259339318688
 20
22.786338355841668
 10
8.781247121512314
 20
22.857067328085087
 10
8.739392304969046
 20
22.956295939323947
 10
8.665317746082318
 20
23.106458874675674
 10
8.513412835362665
 20
23.3382211721131
 10
8.188046106054195
 20
23.652322108427832
 10
7.634058828984298
 20
23.905809948216383
 10
7.07301805842793
 20
23.9352400856345
 10
6.708395756918229
 20
23.844814823441556
 10
6.502515844070384
 20
23.752659765946504
 10
6.381466100067574
 20
23.684372171249606
 10
6.302825687670393
 20
23.635550356373578
 10
6.245296726071856
 20
23.598893233716005
 10
6.197777109579693
 20
23.56908438065396
 10
6.1540574239206665
 20
23.542821473729184
 10
6.11042994668543
 20
23.518225686738635
 10
6.0645745570872425
 20
23.494356327715234
 10
6.01500967576048
 20
23.47088313912608
 10
5.9608049764316275
 20
23.44787166101672
 10
5.901421654484695
 20
23.425640431108114
 10
5.8366177223600175
 20
23.40466288275408
 10
5.766387673521385
 20
23.38549741212624
 10
5.690920774495373
 20
23.36873572272871
 10
5.610569582995889
 20
23.35496351481402
 10
5.525824071856663
 20
23.344729931857586
 10
5.437288772697951
 20
23.33852357355021
 10
5.345661491404929
 20
23.336753726354655
 10
5.251712807439837
 20
23.339735974660385
 10
5.156265963793555
 20
23.347681669233435
 10
5.060176996440208
 20
23.36069092242716
 10
4.96431510266129
 20
23.37874891826401
 10
4.869543340685923
 20
23.401725399242956
 10
4.7766998081111165
 20
23.429377239810023
 10
4.686579474450392
 20
23.46135405262873
 10
4.599916849685643
 20
23.497206809373527
 10
4.517369658036481
 20
23.53639950375268
 10
4.439503653292333
 20
23.57832395379491
 10
4.366778654153541
 20
23.622317950769553
 10
4.299535784520083
 20
23.667687140051513
 10
4.237985753960578
 20
23.713731307422222
 10
4.182197768354667
 20
23.75977621400164
 10
4.132088243762766
 20
23.805212897414762
 10
4.087407756429886
 20
23.849547655004447
 10
4.047723286481534
 20
23.89246814730275
 10
4.012390133407889
 20
23.93393495704396
 10
3.9805023969716
 20
23.974314947978385
 10
3.9507990859291695
 20
24.01458567350518
 10
3.9214759108704262
 20
24.056664208136628
 10
3.8897873447834908
 20
24.10395837369803
 10
3.8511548513687233
 20
24.16231322164875
 10
3.7970406223034447
 20
24.241596511504625
 10
3.7096181215280737
 20
24.35783713374059
 10
3.548782091147351
 20
24.53246120022169
 10
3.232050671258852
 20
24.76727683943796
 10
2.686820985397305
 20
24.954555284486812
 10
2.0870730570824993
 20
24.92579962117028
 10
1.6847133598492845
 20
24.766626254031028
 10
1.4657193866827254
 20
24.620696643049744
 10
1.3438033433301186
 20
24.517622878500077
 10
1.2684908769280028
 20
24.446567090645367
 10
1.2157227851065058
 20
24.394821738824184
 10
1.1736341041312814
 20
24.35373698731429
 10
1.1358479327225042
 20
24.31802482389501
 10
1.0986230599987823
 20
24.28459271451667
 10
1.0596020587064074
 20
24.251731905599016
 10
1.0172285264069856
 20
24.218614068992178
 10
0.9704585970528774
 20
24.184980950806697
 10
0.9186092764275344
 20
24.150947640630136
 10
0.8612735903096206
 20
24.116872711604064
 10
0.7982695983620255
 20
24.08326855408088
 10
0.7296069516098481
 20
24.05073663320655
 10
0.6554625443283365
 20
24.0199188093445
 10
0.5761607329162542
 20
23.991459497997205
 10
0.4921556416527881
 20
23.965975547793654
 10
0.4040141917012092
 20
23.94403195301589
 10
0.3123991237957419
 20
23.926122258949505
 10
0.2180516587354903
 20
23.912652969034088
 10
0.12177366706129063
 20
23.90393153912843
 10
0.0244093604415501
 20
23.900157714469586
 10
-0.07317339494041922
 20
23.90141807030382
 10
-0.17010199039591567
 20
23.907683683648273
 10
-0.2655180330877056
 20
23.918810908638584
 10
-0.3585961666028272
 20
23.934545264414478
 10
-0.4485625850600434
 20
23.954528483780216
 10
-0.5347131106189397
 20
23.978308824789245
 10
-0.6164307726786364
 20
24.005354830749283
 10
-0.6932029385521702
 20
24.035072857980282
 10
-0.7646382241963561
 20
24.06682890747676
 10
-0.8304837039908028
 20
24.099975649234818
 10
-0.8906434232192174
 20
24.13388610537961
 10
-0.9452000541924246
 20
24.16799641461111
 10
-0.9944430408849917
 20
24.201861709792126
 10
-1.0389093945653762
 20
24.23523189906209
 10
-1.079448825805662
 20
24.26815895974612
 10
-1.117336263996974
 20
24.301155900818472
 10
-1.1544794656987483
 20
24.335442740780355
 10
-1.1938259401661833
 20
24.37334090909985
 10
-1.2402104950285546
 20
24.41891529404149
 10
-1.3022324026880197
 20
24.478975577537124
 10
-1.396629184216506
 20
24.564252866329806
 10
-1.5583585186430486
 20
24.688317686816703
 10
-1.8573441658164147
 20
24.850444425813823
 10
-2.3722974212361905
 20
24.96854423851848
 10
-2.9855027278476904
 20
24.880105484650144
 10
-3.4167475812707155
 20
24.64507826248021
 10
-3.642355194384696
 20
24.43660313496798
 10
-3.7592452200274327
 20
24.293810850183636
 10
-3.826829638103103
 20
24.198505811186067
 10
-3.8717406706114748
 20
24.131254705656985
 10
-3.9061544715880405
 20
24.079365985565456
 10
-3.9362325541716032
 20
24.035229525214362
 10
-3.965474510348859
 20
23.99437122128906
 10
-3.9960845127641695
 20
23.95421708965213
 10
-4.029562489461416
 20
23.913371807838196
 10
-4.06697591451383
 20
23.87119484988626
 10
-4.109091871550351
 20
23.827542707357946
 10
-4.156444725318105
 20
23.782604819931823
 10
-4.209373009447464
 20
23.736793781713004
 10
-4.268041393995995
 20
23.690668018210378
 10
-4.332455595634387
 20
23.64487461475632
 10
-4.402474284123657
 20
23.600105187027516
 10
-4.477820130571323
 20
23.557060618042197
 10
-4.558091139860827
 20
23.51642217975164
 10
-4.642772857237674
 20
23.478827557633238
 10
-4.731251720911402
 20
23.444850898735524
 10
-4.822829641692649
 20
23.414986371134482
 10
-4.91673977254228
 20
23.38963494908817
 10
-5.012163357016786
 20
23.36909427820184
 10
-5.108247501106837
 20
23.353551562105242
 10
-5.204123690538945
 20
23.343079467962546
 10
-5.2989268724691865
 20
23.33763508747809
 10
-5.391814937228585
 20
23.337062024610397
 10
-5.481988476238747
 20
23.341095721840205
 10
-5.568710764475333
 20
23.34937219577048
 10
-5.651328034504468
 20
23.3614404461347
 10
-5.729290299827555
 20
23.37677895347288
 10
-5.8021732936125625
 20
23.394816926584994
 10
-5.869702597504532
 20
23.41496136135743
 10
-5.93178189823626
 20
23.436631628249458
 10
-5.988528824212366
 20
23.459304388662485
 10
-6.040324573603154
 20
23.482573448228177
 10
-6.087888784180281
 20
23.506232201102375
 10
-6.1324014952309005
 20
23.530391458261317
 10
-6.175715718002502
 20
23.555653932553465
 10
-6.220751625793152
 20
23.58337940325771
 10
-6.272272884406752
 20
23.616087160033096
 10
-6.338508421323692
 20
23.658017632541075
 10
-6.4347101093078996
 20
23.715604310987114
 10
-6.590949455514657
 20
23.79603227236842
 10
-6.86551678832907
 20
23.894770111115115
 10
-7.334429422766338
 20
23.946751910112983
 10
-7.932824673064221
 20
23.802043996059464
 10
-8.379884265321083
 20
23.48917603915298
 10
-8.603788041584242
 20
23.210364200725888
 10
-8.708290931489607
 20
23.023177923648806
 10
-8.762827858156479
 20
22.901969551871993
 10
-8.796350231643679
 20
22.819147542139557
 10
-8.82074086860151
 20
22.757211853313738
 10
-8.841453405273121
 20
22.705904833982377
 10
-8.861404169926255
 20
22.659234463155112
 10
-8.88241241524834
 20
22.613696062691403
 10
-8.905762404448971
 20
22.56728470020591
 10
-8.932433952277066
 20
22.518939335412103
 10
-8.963200003453043
 20
22.468217495949062
 10
-8.998668196318132
 20
22.415095342970684
 10
-9.039298204681002
 20
22.35983804323824
 10
-9.085408783830394
 20
22.30291091609229
 10
-9.137180937826004
 20
22.24491507842789
 10
-9.194660288793363
 20
22.18653837909253
 10
-9.257760166870032
 20
22.128516299805398
 10
-9.32626616957368
 20
22.07159970000997
 10
-9.399842539255001
 20
22.016527563178165
 10
-9.47804048727615
 20
21.964003664378748
 10
-9.56030846530392
 20
21.914676541358304
 10
-9.646004305369608
 20
21.869122435556378
 10
-9.73440910067174
 20
21.827831045305683
 10
-9.824742668835066
 20
21.791194042513276
 10
-9.916180424573561
 20
21.759496372120314
 10
-10.007871488985698
 20
21.732910397502067
 10
-10.098957880247514
 20
21.711492986871136
 10
-10.188594670292312
 20
21.695185665751485
 10
-10.275971063076701
 20
21.68381799864615
 10
-10.360332467279429
 20
21.677114420853172
 10
-10.441003825285716
 20
21.67470483483427
 10
-10.517414765182458
 20
21.676139437945185
 10
-10.58912764139152
 20
21.680908495846886
 10
-10.655870365013001
 20
21.688468176070998
 10
-10.717577365095998
 20
21.698274201487667
 10
-10.774444589123165
 20
21.709826120825117
 10
-10.827009200775194
 20
21.72272664490069
 10
-10.876273787832844
 20
21.736763045722256
 10
-10.923913333017778
 20
21.752021192795223
 10
-10.972642102006287
 20
21.76904628271281
 10
-11.026903470046456
 20
21.789060387455393
 10
-11.094241898040071
 20
21.814200530356203
 10
-11.18816088538461
 20
21.84749374465352
 10
-11.334101328517514
 20
21.891136756062657
 10
-11.579814614105963
 20
21.93686547657256
 10
-11.993095395427842
 20
21.93040364312226
 10
-12.550000000000058
 20
21.737237634989384
 10
-12.995738972476818
 20
21.351527104011737
 10
-13.207975475060689
 20
20.996846365216314
 10
-13.291229884210768
 20
20.76118805759444
 10
-13.326404149199249
 20
20.61297842069721
 10
-13.344530873516405
 20
20.51499558461048
 10
-13.356428085106336
 20
20.444108723866698
 10
-13.366226045985345
 20
20.38710994832853
 10
-13.375846270109252
 20
20.336397051530547
 10
-13.386452099721849
 20
20.28751092163917
 10
-13.398928513561502
 20
20.23782833732951
 10
-13.414038637815935
 20
20.185855786261005
 10
-13.43246799422082
 20
20.13083136594205
 10
-13.454829227141323
 20
20.072488523570513
 10
-13.481653713833499
 20
20.01090778928449
 10
-13.513380026643038
 20
19.946418087758147
 10
-13.550343093853016
 20
19.87952697112506
 10
-13.592765535561133
 20
19.810868318743275
 10
-13.640751706327457
 20
19.741160988501274
 10
-13.694284591214636
 20
19.671174646211618
 10
-13.753225540594325
 20
19.601700569478957
 10
-13.81731675791491
 20
19.533526146022634
 10
-13.886186419524746
 20
19.467412342250814
 10
-13.959356285195085
 20
19.404073758112727
 10
-14.036251644413493
 20
19.344161094664997
 10
-14.116213434979239
 20
19.288245991242334
 10
-14.198512367883227
 20
19.236808269647767
 10
-14.28236489852843
 20
19.190225672267957
 10
-14.3669509032051
 20
19.14876621215754
 10
-14.45143295758279
 20
19.11258327531118
 10
-14.534977180254488
 20
19.081713636555808
 10
-14.616775713935871
 20
19.056078578809284
 10
-14.696071094033066
 20
19.03548835034619
 10
-14.772183039762002
 20
19.019650268609553
 10
-14.844538667609555
 20
19.008180899255944
 10
-14.912707897103811
 20
19.000622929723942
 10
-14.976447127519354
 20
18.996467650165645
 10
-15.03575655460901
 20
18.99518438800464
 10
-15.090960642589721
 20
18.996258832424157
 10
-15.142829056126725
 20
18.999242829841066
 10
-15.192770590437043
 20
19.00381835593506
 10
-15.243163699504063
 20
19.009875672334154
 10
-15.297953149973285
 20
19.017591599065405
 10
-15.363786348376257
 20
19.027436532258342
 10
-15.45227349954064
 20
19.039816310089506
 10
-15.584511491984145
 20
19.053190132040065
 10
-15.798871008125442
 20
19.056281113151666
 10
-16.15228103121072
 20
19.001780674118034
 10
-16.64676242605033
 20
18.771049688671283
 10
-17.07128078089825
 20
18.3251781574361
 10
-17.26071953965028
 20
17.89309700435901
 10
-17.312493729388063
 20
17.605945799719095
 10
-17.32096074476063
 20
17.430424576142723
 10
-17.319190062298908
 20
17.318318131238446
 10
-17.315994976372775
 20
17.23999123738109
 10
-17.31342985741129
 20
17.179018640199068
 10
-17.311936849344857
 20
17.126153664617757
 10
-17.31171601623121
 20
17.076011210206293
 10
-17.31304984132031
 20
17.02538244306567
 10
-17.316342865597964
 20
16.972361251957828
 10
-17.322089143587295
 20
16.915870287394505
 10
-17.33082742008375
 20
16.855389627706
 10
-17.343100068814323
 20
16.790792242777147
 10
-17.35941912850251
 20
16.7222379327206
 10
-17.380239282447135
 20
16.65010042204287
 10
-17.405936878097677
 20
16.5749138660674
 10
-17.436794101717606
 20
16.49733108624873
 10
-17.472987609158523
 20
16.418089144596397
 10
-17.514581094391414
 20
16.33797972044955
 10
-17.5615214137725
 20
16.25782282809338
 10
-17.613637976545036
 20
16.17844305442443
 10
-17.670645170819487
 20
16.100647885829513
 10
-17.73214762984798
 20
16.025207934194942
 10
-17.797648164883565
 20
15.952839021363019
 10
-17.86655820582255
 20
15.884186173397676
 10
-17.93821060578769
 20
15.819809631375879
 10
-18.011874687365694
 20
15.760173017185311
 10
-18.086773443854337
 20
15.705633809760064
 10
-18.16210286842884
 20
15.656436295673215
 10
-18.237053481888907
 20
15.61270716307256
 10
-18.31083428785957
 20
15.574453913965579
 10
-18.38269963939573
 20
15.541566280709274
 10
-18.451979914632226
 20
15.513820851042562
 10
-18.518117579568145
 20
15.490889131517228
 10
-18.580711358555448
 20
15.472349300925723
 10
-18.63957320143285
 20
15.457701883491566
 10
-18.694806230999777
 20
15.44638938592955
 10
-18.746918271023997
 20
15.437819248549403
 10
-18.796997770296144
 20
15.431387274666303
 10
-18.847003077539632
 20
15.426492149723106
 10
-18.90026541472858
 20
15.422511996284156
 10
-18.962409264985997
 20
15.418653130443438
 10
-19.043105947060955
 20
15.413384588145535
 10
-19.159434740979368
 20
15.402507284690804
 10
-19.341541499888407
 20
15.372673695427341
 10
-19.63489006292821
 20
15.281529334939568
 10
-20.05405203461977
 20
15.025573947708875
 10
-20.43724489545453
 20
14.538741951382015
 10
-20.592444085179963
 20
14.03372944407469
 10
-20.601531034162395
 20
13.693736908757069
 10
-20.57495241511805
 20
13.491642786363103
 10
-20.548298507421983
 20
13.367254131127629
 10
-20.527295729985997
 20
13.283511441755547
 10
-20.51101943229587
 20
13.220554046430683
 10
-20.497871893008007
 20
13.167529915832786
 10
-20.486750219436416
 20
13.118219539600213
 10
-20.47711774931624
 20
13.068909585106052
 10
-20.468871793912054
 20
13.01733787745497
 10
-20.462205539115363
 20
12.962143790919116
 10
-20.457498826528234
 20
12.902565465894625
 10
-20.455236747689412
 20
12.83826288291118
 10
-20.45594929082832
 20
12.769207809702433
 10
-20.46016611031038
 20
12.695610580597046
 10
-20.46838220754469
 20
12.617867783754338
 10
-20.48103172394905
 20
12.536522124188807
 10
-20.498468026746604
 20
12.452229549927225
 10
-20.520948910101573
 20
12.365730835739313
 10
-20.548626143710056
 20
12.277826022184994
 10
-20.581538858653516
 20
12.189350816136118
 10
-20.61961042048418
 20
12.101154486741292
 10
-20.662648537885335
 20
12.014079054051466
 10
-20.71034841540607
 20
11.928939731002274
 10
-20.762298796739927
 20
11.846506680377143
 10
-20.81799077243265
 20
11.76748820871477
 10
-20.876829252200462
 20
11.692515552147636
 10
-20.938147036188695
 20
11.62212942300526
 10
-21.001221471692375
 20
11.556768485609684
 10
-21.06529376558917
 20
11.496759917630063
 10
-21.129591157896183
 20
11.442312190054729
 10
-21.193352379890822
 20
11.393510161731424
 10
-21.255857173177986
 20
11.350312525790129
 10
-21.316461223239628
 20
11.31255154698528
 10
-21.37463882046732
 20
11.279934850776783
 10
-21.430037191967774
 20
11.25204867703456
 10
-21.482549291401934
 20
11.228361289173437
 10
-21.53241694537155
 20
11.20822365205748
 10
-21.580385741329327
 20
11.190860878116002
 10
-21.627951233714924
 20
11.17533924737379
 10
-21.67777196016452
 20
11.160471544731672
 10
-21.734396739167874
 20
11.144564053550301
 10
-21.805593574283535
 20
11.12473822143424
 10
-21.9047859248527
 20
11.095043606235704
 10
-22.055008445092717
 20
11.040998097838285
 10
-22.290884181950183
 20
10.924308559290987
 10
-22.629912210115307
 20
10.655441523597586
 10
-22.954689309207485
 20
10.150422413468092
 10
-23.065116261144656
 20
9.584600432090216
 10
-23.02012566232172
 20
9.192895156681939
 10
-22.949314799827317
 20
8.966295035287871
 10
-22.89235871840694
 20
8.832464617636045
 10
-22.85075448982879
 20
8.74595867563137
 10
-22.819533955776876
 20
8.683324530947294
 10
-22.794420289993383
 20
8.632234344925804
 10
-22.772640797577896
 20
8.585800463089596
 10
-22.75261698176408
 20
8.53994127838694
 10
-22.733590752028427
 20
8.492135693096717
 10
-22.71534601791546
 20
8.440802880068528
 10
-22.69801801621637
 20
8.384974874808385
 10
-22.681963233539523
 20
8.324113058929798
 10
-22.667668673736
 20
8.257998595955094
 10
-22.6556866077263
 20
8.186662329904697
 10
-22.646586204366912
 20
8.110336356151103
 10
-22.64091676871636
 20
8.029417728184184
 10
-22.6391793492917
 20
7.944439032952469
 10
-22.641804712887513
 20
7.856042869731721
 10
-22.64913643973699
 20
7.764958557562912
 10
-22.661418353982672
 20
7.6719801445855955
 10
-22.678785788579972
 20
7.577945239828524
 10
-22.701260358474894
 20
7.483714461758121
 10
-22.72874802324524
 20
7.390151467836569
 10
-22.761040286998558
 20
7.298103634650724
 10
-22.797818426925208
 20
7.208383521302441
 10
-22.838660675397374
 20
7.121751282707195
 10
-22.883052314586756
 20
7.038898211588446
 10
-22.93039868786544
 20
6.960431581906768
 10
-22.980041201403974
 20
6.886860942857357
 10
-23.03127649978559
 20
6.818585968832312
 10
-23.08337917745566
 20
6.755885899726748
 10
-23.13562867579727
 20
6.6989104927241545
 10
-23.187341484655782
 20
6.647672221634797
 10
-23.23791054050183
 20
6.602039144326724
 10
-23.286855011333518
 20
6.561727293913869
 10
-23.333885885619278
 20
6.5262903863452735
 10
-23.378996703908697
 20
6.4951025342753095
 10
-23.422595869994105
 20
6.467325281494551
 10
-23.46571018497161
 20
6.441840671401078
 10
-23.510314372375202
 20
6.417109766437283
 10
-23.55988940463069
 20
6.390860997907993
 10
-23.62039988488107
 20
6.359368017039108
 10
-23.70200102302116
 20
6.315674329577074
 10
-23.821664686793426
 20
6.244985973497484
 10
-24.00441326409528
 20
6.1127662675898415
 10
-24.26503498905311
 20
5.842206722792525
 10
-24.52006812769032
 20
5.341616094222826
 10
-24.577534857417902
 20
4.735105119012624
 10
-24.468198831871085
 20
4.296278797727927
 10
-24.343439250010665
 20
4.048844137366419
 10
-24.250431612732594
 20
3.909612219920536
 10
-24.185424522889143
 20
3.8237505799039098
 10
-24.138177545045956
 20
3.764126801545536
 10
-24.10101418444871
 20
3.7171757238426375
 10
-24.069104137842654
 20
3.6755948377149896
 10
-24.039606938426033
 20
3.635131847929327
 10
-24.01096957808408
 20
3.593147410754317
 10
-23.982466383975854
 20
3.5479360041516297
 10
-23.953907638905907
 20
3.4983849398581826
 10
-23.925452009557272
 20
3.4437924625345984
 10
-23.89748156028555
 20
3.3837644629167145
 10
-23.870514990354792
 20
3.3181516086706355
 10
-23.84514487223665
 20
3.247007829046274
 10
-23.82199053385894
 20
3.170560216672228
 10
-23.80166161488054
 20
3.0891849846579147
 10
-23.7847293055017
 20
3.0033865175446395
 10
-23.771703449540116
 20
2.9137778685123905
 10
-23.763014399463522
 20
2.821061802955499
 10
-23.758998940842623
 20
2.726011929253532
 10
-23.759889867274048
 20
2.629453725141933
 10
-23.76580894906399
 20
2.532245433916153
 10
-23.77676313925886
 20
2.435258907870756
 10
-23.79264392393241
 20
2.3393605386539136
 10
-23.81322976688856
 20
2.245392447684927
 10
-23.83819163482164
 20
2.1541541207193613
 10
-23.86710162865909
 20
2.066384661403308
 10
-23.899444802145908
 20
1.9827458082613458
 10
-23.934634334677078
 20
1.9038058032663026
 10
-23.97203036336759
 20
1.8300241077226085
 10
-24.010963002614012
 20
1.761736813218178
 10
-24.050760442244627
 20
1.6991423556419312
 10
-24.09078360975767
 20
1.642286740416703
 10
-24.13046986861863
 20
1.5910467950237415
 10
-24.169389890688155
 20
1.5451087164469528
 10
-24.207324714160492
 20
1.5039368276974159
 10
-24.24437506585146
 20
1.466722809356152
 10
-24.28112415239734
 20
1.432296023015755
 10
-24.318891776268718
 20
1.3989544106445644
 10
-24.360147708260726
 20
1.3641264370377246
 10
-24.409202206581607
 20
1.3236539447309226
 10
-24.473344660912126
 20
1.2701732071832075
 10
-24.56445516600916
 20
1.1892483816832438
 10
-24.699425132171427
 20
1.0500427423304
 10
-24.887795919744214
 20
0.7872894917992429
 10
-25.0688073711613
 20
0.3104307806466958
 10
-25.068807371161274
 20
-0.31043078064680674
 10
-24.887795919744168
 20
-0.7872894917993027
 10
-24.69942513217137
 20
-1.0500427423304421
 10
-24.56445516600912
 20
-1.1892483816832582
 10
-24.47334466091211
 20
-1.2701732071832028
 10
-24.409202206581597
 20
-1.3236539447309141
 10
-24.360147708260715
 20
-1.3641264370377142
 10
-24.318891776268707
 20
-1.3989544106445562
 10
-24.28112415239733
 20
-1.432296023015747
 10
-24.244375065851454
 20
-1.4667228093561415
 10
-24.20732471416049
 20
-1.503936827697406
 10
-24.169389890688148
 20
-1.5451087164469444
 10
-24.130469868618622
 20
-1.591046795023734
 10
-24.090783609757658
 20
-1.6422867404167074
 10
-24.050760442244616
 20
-1.6991423556419318
 10
-24.010963002614005
 20
-1.761736813218174
 10
-23.97203036336758
 20
-1.8300241077226063
 10
-23.93463433467707
 20
-1.9038058032663012
 10
-23.899444802145897
 20
-1.9827458082613543
 10
-23.867101628659086
 20
-2.066384661403319
 10
-23.838191634821637
 20
-2.1541541207193635
 10
-23.813229766888558
 20
-2.2453924476849294
 10
-23.792643923932406
 20
-2.3393605386539162
 10
-23.77676313925886
 20
-2.4352589078707596
 10
-23.76580894906399
 20
-2.532245433916167
 10
-23.75988986727405
 20
-2.629453725141946
 10
-23.758998940842623
 20
-2.7260119292535347
 10
-23.763014399463525
 20
-2.8210618029555015
 10
-23.771703449540123
 20
-2.9137778685123927
 10
-23.784729305501706
 20
-3.003386517544641
 10
-23.801661614880548
 20
-3.089184984657924
 10
-23.82199053385895
 20
-3.1705602166722358
 10
-23.845144872236656
 20
-3.247007829046272
 10
-23.870514990354806
 20
-3.3181516086706324
 10
-23.897481560285556
 20
-3.38376446291671
 10
-23.925452009557283
 20
-3.4437924625345984
 10
-23.95390763890592
 20
-3.4983849398581808
 10
-23.98246638397586
 20
-3.547936004151622
 10
-24.010969578084087
 20
-3.5931474107543075
 10
-24.03960693842604
 20
-3.6351318479293178
 10
-24.069104137842658
 20
-3.6755948377149794
 10
-24.101014184448722
 20
-3.717175723842632
 10
-24.13817754504597
 20
-3.764126801545533
 10
-24.185424522889157
 20
-3.8237505799039067
 10
-24.250431612732612
 20
-3.909612219920541
 10
-24.343439250010693
 20
-4.04884413736644
 10
-24.46819883187112
 20
-4.296278797727993
 10
-24.577534857417923
 20
-4.735105119012787
 10
-24.52006812769028
 20
-5.341616094222941
 10
-24.26503498905305
 20
-5.84220672279259
 10
-24.004413264095238
 20
-6.112766267589864
 10
-23.8216646867934
 20
-6.244985973497487
 10
-23.702001023021143
 20
-6.315674329577077
 10
-23.620399884881053
 20
-6.359368017039101
 10
-23.55988940463068
 20
-6.390860997907981
 10
-23.5103143723752
 20
-6.417109766437271
 10
-23.465710184971602
 20
-6.441840671401066
 10
-23.422595869994094
 20
-6.467325281494542
 10
-23.378996703908683
 20
-6.4951025342753
 10
-23.333885885619274
 20
-6.526290386345265
 10
-23.286855011333508
 20
-6.561727293913858
 10
-23.237910540501822
 20
-6.6020391443267155
 10
-23.187341484655775
 20
-6.64767222163479
 10
-23.135628675797264
 20
-6.6989104927241545
 10
-23.08337917745565
 20
-6.75588589972675
 10
-23.031276499785587
 20
-6.818585968832308
 10
-22.98004120140397
 20
-6.886860942857355
 10
-22.930398687865438
 20
-6.960431581906767
 10
-22.883052314586756
 20
-7.038898211588447
 10
-22.838660675397367
 20
-7.121751282707204
 10
-22.797818426925197
 20
-7.208383521302451
 10
-22.761040286998558
 20
-7.298103634650726
 10
-22.728748023245238
 20
-7.3901514678365725
 10
-22.70126035847489
 20
-7.483714461758124
 10
-22.678785788579972
 20
-7.577945239828536
 10
-22.661418353982672
 20
-7.671980144585609
 10
-22.649136439736992
 20
-7.764958557562914
 10
-22.641804712887517
 20
-7.856042869731724
 10
-22.639179349291705
 20
-7.944439032952471
 10
-22.640916768716362
 20
-8.029417728184187
 10
-22.646586204366923
 20
-8.110336356151109
 10
-22.655686607726306
 20
-8.186662329904706
 10
-22.66766867373601
 20
-8.257998595955094
 10
-22.681963233539534
 20
-8.324113058929797
 10
-22.698018016216384
 20
-8.384974874808382
 10
-22.715346017915476
 20
-8.440802880068528
 10
-22.733590752028437
 20
-8.492135693096717
 10
-22.752616981764092
 20
-8.539941278386932
 10
-22.772640797577907
 20
-8.585800463089589
 10
-22.794420289993397
 20
-8.632234344925799
 10
-22.819533955776887
 20
-8.683324530947292
 10
-22.850754489828812
 20
-8.745958675631377
 10
-22.89235871840696
 20
-8.832464617636061
 10
-22.949314799827338
 20
-8.966295035287892
 10
-23.020125662321743
 20
-9.192895156681985
 10
-23.065116261144663
 20
-9.584600432090308
 10
-22.954689309207417
 20
-10.150422413468268
 10
-22.62991221011519
 20
-10.655441523597696
 10
-22.290884181950123
 20
-10.924308559291008
 10
-22.05500844509268
 20
-11.040998097838283
 10
-21.904785924852682
 20
-11.095043606235695
 10
-21.80559357428352
 20
-11.12473822143423
 10
-21.734396739167863
 20
-11.144564053550287
 10
-21.677771960164513
 20
-11.16047154473166
 10
-21.627951233714928
 20
-11.175339247373778
 10
-21.580385741329327
 20
-11.190860878115988
 10
-21.532416945371544
 20
-11.20822365205747
 10
-21.482549291401924
 20
-11.228361289173428
 10
-21.430037191967763
 20
-11.252048677034551
 10
-21.37463882046731
 20
-11.279934850776778
 10
-21.316461223239628
 20
-11.312551546985269
 10
-21.25585717317798
 20
-11.350312525790121
 10
-21.193352379890815
 20
-11.393510161731417
 10
-21.129591157896172
 20
-11.44231219005473
 10
-21.06529376558916
 20
-11.496759917630069
 10
-21.001221471692375
 20
-11.556768485609684
 10
-20.938147036188692
 20
-11.622129423005262
 10
-20.87682925220046
 20
-11.692515552147638
 10
-20.817990772432648
 20
-11.767488208714772
 10
-20.76229879673992
 20
-11.846506680377152
 10
-20.710348415406063
 20
-11.928939731002284
 10
-20.662648537885335
 20
-12.01407905405147
 10
-20.619610420484175
 20
-12.101154486741299
 10
-20.581538858653513
 20
-12.189350816136121
 10
-20.548626143710056
 20
-12.277826022185007
 10
-20.520948910101573
 20
-12.365730835739328
 10
-20.498468026746608
 20
-12.452229549927228
 10
-20.48103172394906
 20
-12.53652212418881
 10
-20.468382207544693
 20
-12.61786778375434
 10
-20.460166110310386
 20
-12.695610580597045
 10
-20.455949290828325
 20
-12.769207809702442
 10
-20.455236747689415
 20
-12.838262882911183
 10
-20.457498826528244
 20
-12.902565465894625
 10
-20.462205539115377
 20
-12.962143790919113
 10
-20.468871793912065
 20
-13.017337877454967
 10
-20.47711774931625
 20
-13.068909585106052
 10
-20.48675021943643
 20
-13.118219539600213
 10
-20.49787189300802
 20
-13.16752991583278
 10
-20.511019432295885
 20
-13.220554046430678
 10
-20.52729572998601
 20
-13.283511441755547
 10
-20.548298507421997
 20
-13.367254131127638
 10
-20.574952415118076
 20
-13.491642786363139
 10
-20.601531034162416
 20
-13.69373690875714
 10
-20.59244408517996
 20
-14.033729444074767
 10
-20.437244895454477
 20
-14.538741951382116
 10
-20.054052034619684
 20
-15.025573947708946
 10
-19.634890062928104
 20
-15.281529334939602
 10
-19.341541499888365
 20
-15.372673695427348
 10
-19.159434740979332
 20
-15.402507284690795
 10
-19.043105947060948
 20
-15.41338458814552
 10
-18.96240926498599
 20
-15.418653130443426
 10
-18.900265414728583
 20
-15.422511996284141
 10
-18.84700307753963
 20
-15.426492149723092
 10
-18.796997770296144
 20
-15.431387274666292
 10
-18.746918271024
 20
-15.43781924854939
 10
-18.694806230999777
 20
-15.446389385929539
 10
-18.63957320143285
 20
-15.457701883491552
 10
-18.580711358555448
 20
-15.472349300925712
 10
-18.518117579568138
 20
-15.49088913151722
 10
-18.451979914632222
 20
-15.513820851042553
 10
-18.382699639395728
 20
-15.541566280709267
 10
-18.31083428785957
 20
-15.574453913965574
 10
-18.2370534818889
 20
-15.612707163072555
 10
-18.162102868428825
 20
-15.656436295673217
 10
-18.086773443854323
 20
-15.705633809760066
 10
-18.01187468736569
 20
-15.76017301718531
 10
-17.938210605787688
 20
-15.819809631375879
 10
-17.86655820582255
 20
-15.884186173397678
 10
-17.797648164883558
 20
-15.952839021363022
 10
-17.73214762984797
 20
-16.025207934194952
 10
-17.67064517081948
 20
-16.100647885829524
 10
-17.61363797654503
 20
-16.178443054424434
 10
-17.561521413772503
 20
-16.25782282809338
 10
-17.514581094391417
 20
-16.337979720449553
 10
-17.472987609158526
 20
-16.418089144596408
 10
-17.436794101717606
 20
-16.497331086248746
 10
-17.405936878097684
 20
-16.574913866067405
 10
-17.380239282447143
 20
-16.650100422042865
 10
-17.35941912850252
 20
-16.722237932720603
 10
-17.343100068814337
 20
-16.790792242777147
 10
-17.33082742008375
 20
-16.855389627706014
 10
-17.322089143587302
 20
-16.915870287394508
 10
-17.316342865597978
 20
-16.97236125195783
 10
-17.313049841320318
 20
-17.025382443065666
 10
-17.311716016231223
 20
-17.076011210206293
 10
-17.31193684934487
 20
-17.12615366461776
 10
-17.313429857411304
 20
-17.179018640199075
 10
-17.31599497637279
 20
-17.239991237381094
 10
-17.31919006229892
 20
-17.318318131238456
 10
-17.320960744760644
 20
-17.43042457614274
 10
-17.31249372938807
 20
-17.605945799719134
 10
-17.26071953965026
 20
-17.893097004359117
 10
-17.071280780898164
 20
-18.32517815743625
 10
-16.64676242605023
 20
-18.771049688671347
 10
-16.152281031210638
 20
-19.001780674118045
 10
-15.798871008125397
 20
-19.05628111315166
 10
-15.584511491984122
 20
-19.05319013204005
 10
-15.452273499540619
 20
-19.03981631008949
 10
-15.363786348376255
 20
-19.027436532258335
 10
-15.297953149973283
 20
-19.01759159906539
 10
-15.243163699504061
 20
-19.009875672334136
 10
-15.192770590437044
 20
-19.00381835593505
 10
-15.14282905612672
 20
-18.999242829841055
 10
-15.090960642589721
 20
-18.996258832424147
 10
-15.03575655460901
 20
-18.995184388004624
 10
-14.97644712751935
 20
-18.99646765016563
 10
-14.912707897103813
 20
-19.000622929723935
 10
-14.844538667609548
 20
-19.008180899255937
 10
-14.772183039761998
 20
-19.019650268609546
 10
-14.696071094033057
 20
-19.03548835034619
 10
-14.61677571393586
 20
-19.05607857880928
 10
-14.534977180254486
 20
-19.081713636555804
 10
-14.451432957582776
 20
-19.11258327531118
 10
-14.366950903205094
 20
-19.14876621215753
 10
-14.282364898528419
 20
-19.190225672267964
 10
-14.198512367883234
 20
-19.23680826964776
 10
-14.116213434979235
 20
-19.288245991242334
 10
-14.036251644413483
 20
-19.344161094665008
 10
-13.959356285195083
 20
-19.40407375811273
 10
-13.886186419524739
 20
-19.467412342250828
 10
-13.817316757914908
 20
-19.533526146022645
 10
-13.753225540594327
 20
-19.60170056947896
 10
-13.694284591214632
 20
-19.671174646211636
 10
-13.640751706327464
 20
-19.741160988501278
 10
-13.592765535561131
 20
-19.81086831874329
 10
-13.550343093853021
 20
-19.87952697112506
 10
-13.513380026643043
 20
-19.94641808775815
 10
-13.481653713833502
 20
-20.010907789284506
 10
-13.454829227141328
 20
-20.072488523570517
 10
-13.43246799422083
 20
-20.130831365942058
 10
-13.414038637815944
 20
-20.185855786261005
 10
-13.398928513561513
 20
-20.237828337329518
 10
-13.386452099721858
 20
-20.287510921639168
 10
-13.375846270109264
 20
-20.336397051530543
 10
-13.366226045985353
 20
-20.387109948328533
 10
-13.356428085106351
 20
-20.444108723866705
 10
-13.344530873516412
 20
-20.514995584610496
 10
-13.32640414919926
 20
-20.612978420697228
 10
-13.291229884210772
 20
-20.761188057594467
 10
-13.207975475060659
 20
-20.996846365216403
 10
-12.995738972476776
 20
-21.351527104011797
 10
-12.54999999999989
 20
-21.737237634989473
 10
-11.993095395427723
 20
-21.93040364312227
 10
-11.579814614105912
 20
-21.936865476572542
 10
-11.334101328517475
 20
-21.891136756062636
 10
-11.188160885384601
 20
-21.8474937446535
 10
-11.094241898040062
 20
-21.81420053035619
 10
-11.026903470046461
 20
-21.78906038745538
 10
-10.97264210200629
 20
-21.769046282712793
 10
-10.92391333301778
 20
-21.75202119279521
 10
-10.87627378783285
 20
-21.73676304572224
 10
-10.827009200775194
 20
-21.72272664490068
 10
-10.774444589123172
 20
-21.709826120825102
 10
-10.717577365095998
 20
-21.698274201487656
 10
-10.655870365013012
 20
-21.688468176070984
 10
-10.589127641391523
 20
-21.680908495846875
 10
-10.517414765182451
 20
-21.676139437945174
 10
-10.441003825285714
 20
-21.674704834834266
 10
-10.36033246727942
 20
-21.677114420853165
 10
-10.275971063076701
 20
-21.68381799864615
 10
-10.18859467029231
 20
-21.695185665751485
 10
-10.0989578802475
 20
-21.71149298687114
 10
-10.007871488985694
 20
-21.732910397502064
 10
-9.916180424573549
 20
-21.759496372120314
 10
-9.824742668835068
 20
-21.791194042513276
 10
-9.734409100671733
 20
-21.827831045305686
 10
-9.64600430536959
 20
-21.86912243555639
 10
-9.560308465303919
 20
-21.914676541358304
 10
-9.478040487276141
 20
-21.964003664378758
 10
-9.399842539255001
 20
-22.016527563178165
 10
-9.326266169573678
 20
-22.071599700009973
 10
-9.257760166870039
 20
-22.1285162998054
 10
-9.194660288793367
 20
-22.186538379092536
 10
-9.137180937826
 20
-22.244915078427905
 10
-9.085408783830399
 20
-22.302910916092298
 10
-9.039298204681003
 20
-22.359838043238252
 10
-8.99866819631814
 20
-22.415095342970687
 10
-8.963200003453055
 20
-22.46821749594907
 10
-8.932433952277075
 20
-22.518939335412114
 10
-8.905762404448986
 20
-22.567284700205914
 10
-8.882412415248353
 20
-22.61369606269141
 10
-8.861404169926272
 20
-22.659234463155112
 10
-8.841453405273132
 20
-22.705904833982384
 10
-8.820740868601524
 20
-22.757211853313752
 10
-8.796350231643691
 20
-22.819147542139564
 10
-8.762827858156488
 20
-22.90196955187202
 10
-8.708290931489612
 20
-23.02317792364882
 10
-8.603788041584215
 20
-23.210364200725955
 10
-8.379884265320989
 20
-23.48917603915308
 10
-7.932824673064088
 20
-23.802043996059528
 10
-7.334429422766193
 20
-23.946751910112987
 10
-6.865516788329009
 20
-23.894770111115093
 10
-6.590949455514625
 20
-23.796032272368397
 10
-6.434710109307899
 20
-23.71560431098711
 10
-6.3385084213236915
 20
-23.658017632541053
 10
-6.2722728844067515
 20
-23.616087160033082
 10
-6.2207516257931585
 20
-23.5833794032577
 10
-6.1757157180025
 20
-23.55565393255346
 10
-6.132401495230913
 20
-23.530391458261306
 10
-6.0878887841802865
 20
-23.50623220110236
 10
-6.0403245736031534
 20
-23.482573448228166
 10
-5.988528824212366
 20
-23.459304388662478
 10
-5.93178189823626
 20
-23.43663162824944
 10
-5.869702597504538
 20
-23.414961361357424
 10
-5.802173293612561
 20
-23.394816926584987
 10
-5.729290299827541
 20
-23.376778953472876
 10
-5.651328034504469
 20
-23.36144044613469
 10
-5.568710764475322
 20
-23.34937219577047
 10
-5.481988476238745
 20
-23.341095721840205
 10
-5.391814937228576
 20
-23.337062024610393
 10
-5.298926872469187
 20
-23.337635087478084
 10
-5.204123690538942
 20
-23.34307946796255
 10
-5.108247501106824
 20
-23.353551562105242
 10
-5.012163357016783
 20
-23.369094278201842
 10
-4.916739772542273
 20
-23.38963494908817
 10
-4.822829641692651
 20
-23.414986371134486
 10
-4.731251720911395
 20
-23.444850898735528
 10
-4.6427728572376665
 20
-23.47882755763325
 10
-4.558091139860828
 20
-23.516422179751643
 10
-4.477820130571315
 20
-23.557060618042208
 10
-4.40247428412366
 20
-23.60010518702752
 10
-4.332455595634388
 20
-23.644874614756326
 10
-4.268041393995993
 20
-23.69066801821039
 10
-4.209373009447467
 20
-23.736793781713008
 10
-4.156444725318101
 20
-23.782604819931834
 10
-4.109091871550364
 20
-23.827542707357953
 10
-4.066975914513837
 20
-23.87119484988627
 10
-4.029562489461418
 20
-23.913371807838207
 10
-3.9960845127641713
 20
-23.954217089652133
 10
-3.965474510348872
 20
-23.99437122128907
 10
-3.9362325541716148
 20
-24.03522952521437
 10
-3.9061544715880467
 20
-24.079365985565467
 10
-3.871740670611479
 20
-24.13125470565699
 10
-3.82682963810311
 20
-24.198505811186088
 10
-3.759245220027423
 20
-24.293810850183675
 10
-3.642355194384683
 20
-24.43660313496801
 10
-3.416747581270671
 20
-24.645078262480254
 10
-2.985502727847594
 20
-24.880105484650187
 10
-2.372297421236041
 20
-24.968544238518465
 10
-1.8573441658163174
 20
-24.850444425813777
 10
-1.558358518643008
 20
-24.688317686816653
 10
-1.3966291842164846
 20
-24.564252866329763
 10
-1.302232402688025
 20
-24.478975577537113
 10
-1.2402104950285564
 20
-24.418915294041476
 10
-1.1938259401661802
 20
-24.373340909099838
 10
-1.1544794656987618
 20
-24.335442740780344
 10
-1.1173362639969815
 20
-24.301155900818465
 10
-1.0794488258056703
 20
-24.268158959746117
 10
-1.03890939456539
 20
-24.23523189906207
 10
-0.9944430408850048
 20
-24.20186170979212
 10
-0.9452000541924317
 20
-24.167996414611103
 10
-0.890643423219215
 20
-24.133886105379595
 10
-0.8304837039908092
 20
-24.099975649234803
 10
-0.7646382241963576
 20
-24.066828907476754
 10
-0.6932029385521737
 20
-24.03507285798028
 10
-0.6164307726786307
 20
-24.005354830749276
 10
-0.5347131106189318
 20
-23.97830882478923
 10
-0.44856258506004215
 20
-23.95452848378021
 10
-0.3585961666028151
 20
-23.93454526441447
 10
-0.2655180330877066
 20
-23.918810908638584
 10
-0.17010199039590804
 20
-23.90768368364827
 10
-0.07317339494040595
 20
-23.901418070303823
 10
0.024409360441553857
 20
-23.900157714469586
 10
0.12177366706130456
 20
-23.90393153912843
 10
0.21805165873548793
 20
-23.912652969034088
 10
0.3123991237957491
 20
-23.92612225894951
 10
0.40401419170122527
 20
-23.944031953015898
 10
0.49215564165279096
 20
-23.965975547793658
 10
0.576160732916261
 20
-23.991459497997216
 10
0.6554625443283352
 20
-24.01991880934451
 10
0.7296069516098516
 20
-24.050736633206558
 10
0.7982695983620144
 20
-24.08326855408089
 10
0.861273590309613
 20
-24.11687271160407
 10
0.9186092764275331
 20
-24.150947640630147
 10
0.970458597052873
 20
-24.184980950806708
 10
1.017228526406972
 20
-24.218614068992196
 10
1.0596020587063923
 20
-24.251731905599026
 10
1.0986230599987736
 20
-24.284592714516684
 10
1.1358479327225006
 20
-24.318024823895016
 10
1.1736341041312643
 20
-24.353736987314303
 10
1.2157227851064982
 20
-24.394821738824202
 10
1.2684908769279948
 20
-24.446567090645377
 10
1.3438033433301257
 20
-24.5176228785001
 10
1.4657193866827734
 20
-24.620696643049808
 10
1.6847133598493405
 20
-24.766626254031078
 10
2.0870730570826295
 20
-24.925799621170313
 10
2.6868209853973615
 20
-24.954555284486805
 10
3.2320506712589694
 20
-24.767276839437876
 10
3.5487820911473698
 20
-24.53246120022166
 10
3.709618121528079
 20
-24.357837133740567
 10
3.7970406223034514
 20
-24.24159651150461
 10
3.8511548513687117
 20
-24.162313221648738
 10
3.8897873447834814
 20
-24.10395837369802
 10
3.9214759108704174
 20
-24.056664208136628
 10
3.9507990859291664
 20
-24.014585673505177
 10
3.9805023969715876
 20
-23.974314947978375
 10
4.012390133407878
 20
-23.933934957043952
 10
4.047723286481531
 20
-23.89246814730274
 10
4.087407756429881
 20
-23.849547655004443
 10
4.132088243762757
 20
-23.80521289741475
 10
4.182197768354666
 20
-23.75977621400163
 10
4.237985753960575
 20
-23.71373130742221
 10
4.2995357845200886
 20
-23.667687140051505
 10
4.366778654153533
 20
-23.622317950769546
 10
4.439503653292336
 20
-23.5783239537949
 10
4.517369658036496
 20
-23.53639950375267
 10
4.599916849685642
 20
-23.49720680937352
 10
4.686579474450402
 20
-23.461354052628728
 10
4.776699808111119
 20
-23.429377239810023
 10
4.869543340685931
 20
-23.40172539924295
 10
4.964315102661287
 20
-23.37874891826401
 10
5.0601769964402115
 20
-23.360690922427164
 10
5.156265963793568
 20
-23.347681669233438
 10
5.251712807439841
 20
-23.339735974660393
 10
5.345661491404936
 20
-23.336753726354658
 10
5.437288772697948
 20
-23.338523573550216
 10
5.525824071856669
 20
-23.344729931857596
 10
5.610569582995899
 20
-23.354963514814024
 10
5.690920774495371
 20
-23.368735722728722
 10
5.766387673521391
 20
-23.385497412126252
 10
5.836617722360014
 20
-23.40466288275409
 10
5.901421654484698
 20
-23.425640431108118
 10
5.960804976431628
 20
-23.447871661016734
 10
6.0150096757604725
 20
-23.470883139126094
 10
6.064574557087242
 20
-23.494356327715245
 10
6.110429946685426
 20
-23.51822568673864
 10
6.1540574239206585
 20
-23.542821473729198
 10
6.1977771095796905
 20
-23.569084380653976
 10
6.245296726071854
 20
-23.59889323371601
 10
6.302825687670401
 20
-23.635550356373585
 10
6.381466100067578
 20
-23.684372171249628
 10
6.502515844070409
 20
-23.752659765946536
 10
6.708395756918247
 20
-23.84481482344157
 10
7.073018058428001
 20
-23.93524008563451
 10
7.634058828984511
 20
-23.905809948216334
 10
8.188046106054275
 20
-23.65232210842777
 10
8.513412835362713
 20
-23.338221172113023
 10
8.665317746082318
 20
-23.106458874675635
 10
8.739392304969039
 20
-22.95629593932392
 10
8.781247121512305
 20
-22.85706732808507
 10
8.809259339318679
 20
-22.78633835584166
 10
8.83133848504581
 20
-22.730678402622992
 10
8.851393565441198
 20
-22.682253048562384
 10
8.871686942800345
 20
-22.63647622963426
 10
8.89372785178653
 20
-22.590683329493288
 10
8.918630481391153
 20
-22.54339313600522
 10
8.94726358931887
 20
-22.493885005127726
 10
8.980314246862298
 20
-22.441945468569347
 10
9.018314794833898
 20
-22.387708349135824
 10
9.061653908460414
 20
-22.33154818739983
 10
9.11058116987729
 20
-22.274005130800315
 10
9.16520957506303
 20
-22.215729079370377
 10
9.225518133737072
 20
-22.157436103096458
 10
9.291355631173513
 20
-22.099873059472994
 10
9.36244606965345
 20
-22.04378801278811
 10
9.438396012726372
 20
-21.98990504190857
 10
9.518703888668336
 20
-21.93890261588404
 10
9.60277120958848
 20
-21.89139507875077
 10
9.689915600143465
 20
-21.847917008335045
 10
9.779385490621005
 20
-21.80891035229899
 10
9.870376306881072
 20
-21.774714330649893
 10
9.962047982283424
 20
-21.74555814812374
 10
10.05354362520093
 20
-21.721556596396923
 10
10.14400920356378
 20
-21.702708655825376
 10
10.232614161871515
 20
-21.688899239132986
 10
10.318572977837686
 20
-21.679904265754764
 10
10.401167814858074
 20
-21.675399328829545
 10
10.47977266627783
 20
-21.674972336201105
 10
10.553879776490271
 20
-21.678140701138666
 10
10.623129767379622
 20
-21.684373973332278
 10
10.687347991208943
 20
-21.693123308990554
 10
10.746591545292251
 20
-21.703859997530213
 10
10.8012148586073
 20
-21.71612657397058
 10
10.851968319713228
 20
-21.729606110583468
 10
10.9001573345276
 20
-21.744218359927874
 10
10.947915829779882
 20
-21.760255275455464
 10
10.998705705681731
 20
-21.778569973813934
 10
11.05828316133434
 20
-21.800816169376315
 10
11.136670065829065
 20
-21.829624795513777
 10
11.252308273057348
 20
-21.86806639472944
 10
11.440348876168146
 20
-21.915350994497494
 10
11.762085259841417
 20
-21.94710825660081
 10
12.265562743424034
 20
-21.865439416327607
 10
12.803244627737461
 20
-21.5550086356808
 10
13.12571065990285
 20
-21.15981876480143
 10
13.25907625600333
 20
-20.865308252166983
 10
13.312146892951791
 20
-20.678818013046165
 10
13.33667459508307
 20
-20.559451588330543
 10
13.350919045247238
 20
-20.477162224645383
 10
13.361442002578968
 20
-20.414443536776194
 10
13.370975946488823
 20
-20.36130086481089
 10
13.380966817869725
 20
-20.31192233691211
 10
13.392406746138212
 20
-20.262883301227312
 10
13.406109855553174
 20
-20.212189746273157
 10
13.422798345395893
 20
-20.15875128108326
 10
13.443121877409684
 20
-20.102076513966797
 10
13.467653842378029
 20
-20.042087232915563
 10
13.496880665754352
 20
-19.978998345496727
 10
13.531190336336177
 20
-19.913235522982927
 10
13.570862548509519
 20
-19.845375221106924
 10
13.616061356839396
 20
-19.776098462488438
 10
13.666830640274387
 20
-19.70615343087163
 10
13.723092425095324
 20
-19.636323994422053
 10
13.784648009620714
 20
-19.567402475677557
 10
13.85118178460515
 20
-19.500165700438806
 10
13.922267617051356
 20
-19.43535379199597
 10
13.99737764863786
 20
-19.37365144442823
 10
14.075893348920548
 20
-19.31567157441889
 10
14.15711865768557
 20
-19.261941353608833
 10
14.240295052174304
 20
-19.212890686630512
 10
14.324618386737152
 20
-19.168843238953077
 10
14.40925737988667
 20
-19.13001014427572
 10
14.4933736743282
 20
-19.096486541928357
 10
14.576143481143475
 20
-19.068251118438543
 10
14.656780958795931
 20
-19.04516886269815
 10
14.734563702359356
 20
-19.026997301754065
 10
14.808861081894376
 20
-19.0133965787292
 10
14.879166765451666
 20
-19.003943886219126
 10
14.94513776269497
 20
-18.998153006034748
 10
15.00664404958704
 20
-18.99550006526957
 10
15.063835902584682
 20
-18.995457131853616
 10
15.117241726297555
 20
-18.997535918738997
 10
15.16791999562569
 20
-19.001344381704946
 10
15.217710572401442
 20
-19.006658210847416
 10
15.269675699402894
 20
-19.013502678780377
 10
15.328918205727279
 20
-19.022211554296142
 10
15.404177401376845
 20
-19.03331674818119
 10
15.511039307763573
 20
-19.046683719403422
 10
15.678121503928395
 20
-19.05761473730925
 10
15.954785996508502
 20
-19.041942374385123
 10
16.38948875136372
 20
-18.917216989415103
 10
16.886009298706103
 20
-18.564193853993363
 10
17.192016930625137
 20
-18.093033362841908
 10
17.29601750717703
 20
-17.732048555851673
 10
17.319148842723017
 20
-17.50767379244899
 10
17.320534922953563
 20
-17.368697841672525
 10
17.317574197210654
 20
-17.27618233933446
 10
17.314592678558824
 20
-17.208032235808012
 10
17.312537262795487
 20
-17.151974614216687
 10
17.311652761050922
 20
-17.100980802328106
 10
17.31216592330866
 20
-17.050900405244096
 10
17.314422146821443
 20
-16.999253793439927
 10
17.318876209858786
 20
-16.94459275278082
 10
17.326050034901872
 20
-16.88614436710285
 10
17.336488886017122
 20
-16.823601286781383
 10
17.350723762295754
 20
-16.756990661119282
 10
17.36924100227587
 20
-16.68658691940208
 10
17.392458402960273
 20
-16.612849823001962
 10
17.4207069167897
 20
-16.536377545981708
 10
17.454217129547306
 20
-16.457868989000236
 10
17.49310991516748
 20
-16.378091991643437
 10
17.537390823181827
 20
-16.297855514766194
 10
17.586947867957527
 20
-16.217984691953188
 10
17.64155246313165
 20
-16.13929814793098
 10
17.700863290558353
 20
-16.06258728777644
 10
17.764432920583953
 20
-15.988597450427433
 10
17.831717017788982
 20
-15.918010937484818
 10
17.902085980468854
 20
-15.851431999981495
 10
17.974838879532292
 20
-15.789373908043128
 10
18.049219590051347
 20
-15.732248251810619
 10
18.124435054851038
 20
-15.680356634020955
 10
18.19967569599938
 20
-15.633884920842434
 10
18.27413811456283
 20
-15.592900222585369
 10
18.347050419846845
 20
-15.557350783900407
 10
18.417700853765723
 20
-15.527068977517523
 10
18.485470905381348
 20
-15.501777618046548
 10
18.549874989776757
 20
-15.481099838484973
 10
18.610610259786498
 20
-15.464572780196068
 10
18.667622731433937
 20
-15.451665267234223
 10
18.72120061862054
 20
-15.441799263947262
 10
18.772114584792483
 20
-15.43437366959146
 10
18.82184171164873
 20
-15.428785210415601
 10
18.872944379122963
 20
-15.424429863210829
 10
18.929746610993398
 20
-15.420633842750753
 10
18.99959963846008
 20
-15.416354546017386
 10
19.095318096103526
 20
-15.409131893868578
 10
19.23969667829926
 20
-15.391542098452717
 10
19.471343571174454
 20
-15.339566043539712
 10
19.833065589885933
 20
-15.182676407347625
 10
20.26786832381018
 20
-14.804132871018561
 10
20.54283915303277
 20
-14.270358097572553
 10
20.60617082210085
 20
-13.842317694739988
 10
20.58928905840995
 20
-13.579698545211437
 10
20.560982581522556
 20
-13.422579272264365
 10
20.537102697355518
 20
-13.321828869211132
 10
20.51867395406135
 20
-13.250257685273892
 10
20.504137856033225
 20
-13.193265442582629
 10
20.492103300992422
 20
-13.142685576521231
 10
20.481762681330544
 20
-13.093731836400677
 10
20.47281488666513
 20
-13.043508253541551
 10
20.46532076499494
 20
-12.990252779818745
 10
20.459578594914888
 20
-12.93293227377215
 10
20.45602954403978
 20
-12.871012789853348
 10
20.455187632930002
 20
-12.804321164618798
 10
20.457587574815946
 20
-12.732956028290753
 10
20.463745428280966
 20
-12.657226471475116
 10
20.47412861356784
 20
-12.577606619289776
 10
20.489133032672903
 20
-12.494699580367135
 10
20.50906583003958
 20
-12.40920706218397
 10
20.534132844487484
 20
-12.321902530010625
 10
20.564430128404723
 20
-12.23360670680185
 10
20.599939113697154
 20
-12.145164760319307
 10
20.640525129678633
 20
-12.05742485875127
 10
20.685939054964518
 20
-11.971217983467309
 10
20.735821932825758
 20
-11.887339016252348
 10
20.789712410880092
 20
-11.806529196906983
 10
20.84705689174122
 20
-11.729460092502459
 10
20.907222310312893
 20
-11.656719242229467
 10
20.96951149516162
 20
-11.588797648040897
 10
21.033181137365556
 20
-11.526079274862022
 10
21.09746249662769
 20
-11.468832706560478
 10
21.16158514609686
 20
-11.417205074225937
 10
21.224804334506754
 20
-11.37121832687972
 10
21.286432994819126
 20
-11.330767839532388
 10
21.345880170908643
 20
-11.295623222468427
 10
21.402698880720664
 20
-11.265430948716489
 10
21.456648580000373
 20
-11.239717918873025
 10
21.507781188477445
 20
-11.217894021607123
 10
21.55656657512191
 20
-11.199249374640077
 10
21.604086483433406
 20
-11.18293636121826
 10
21.652351358706763
 20
-11.16791282494759
 10
21.70484537246207
 20
-11.152786862669176
 10
21.76750622501458
 20
-11.135403852285947
 10
21.850530910110017
 20
-11.111721446409492
 10
21.97158159933461
 20
-11.072610079966674
 10
22.15988955280548
 20
-10.994580778059584
 10
22.44978825099643
 20
-10.816714981739045
 10
22.809542316690724
 20
-10.429802287136322
 10
23.039554762467432
 20
-9.854531536941126
 10
23.05163764419886
 20
-9.363548927540537
 10
22.983896694273067
 20
-9.063929439540631
 10
22.918679961006767
 20
-8.891303565492825
 10
22.869935585164036
 20
-8.785121223040544
 10
22.834149935597452
 20
-8.712601575213558
 10
22.806419886316615
 20
-8.6568539892813
 10
22.78323563171122
 20
-8.608737375491279
 10
22.76247228064499
 20
-8.562983946622765
 10
22.743002783788164
 20
-8.516397841102739
 10
22.724368720461186
 20
-8.466982421908646
 10
22.70654911594666
 20
-8.413492966394708
 10
22.68980323010578
 20
-8.355193406432228
 10
22.674562304886237
 20
-8.291715688414596
 10
22.661352924079683
 20
-8.222972930670446
 10
22.650741033391714
 20
-8.149101737501105
 10
22.643289883493946
 20
-8.070420700790745
 10
22.639527766012556
 20
-7.987398023954959
 10
22.639922999000152
 20
-7.900624322368972
 10
22.644864583715155
 20
-7.8107883699915766
 10
22.654647544603364
 20
-7.718654540447922
 10
22.669462326699087
 20
-7.6250412673596495
 10
22.6893878475152
 20
-7.530800197736803
 10
22.71438793742584
 20
-7.436795927725135
 10
22.744310986864754
 20
-7.343886344006892
 10
22.77889267192632
 20
-7.252903676275713
 10
22.817761667083982
 20
-7.164636413538121
 10
22.86044828624169
 20
-7.079812259384704
 10
22.90639603162001
 20
-6.999082304160836
 10
22.954976085397277
 20
-6.923006577243804
 10
23.005504866192947
 20
-6.852041109521734
 10
23.057264912602157
 20
-6.786526580067306
 10
23.1095295822747
 20
-6.726678531430017
 10
23.161592422115085
 20
-6.672578993864389
 10
23.212802666318872
 20
-6.624169118580294
 10
23.262609318320017
 20
-6.581242000543454
 10
23.31061796779967
 20
-6.543434101267987
 10
23.356667439201132
 20
-6.510212196270353
 10
23.4009386255006
 20
-6.480849758036721
 10
23.444117511462117
 20
-6.454380248055035
 10
23.487652567347375
 20
-6.429500267935719
 10
23.53418148320445
 20
-6.404360763058641
 10
23.588267860779553
 20
-6.37609592265202
 10
23.657698483622607
 20
-6.3396995013026345
 10
23.75567085406855
 20
-6.285179734844375
 10
23.903443184902763
 20
-6.1900864726492815
 10
24.12623632797939
 20
-6.001673106755998
 10
24.40571020366461
 20
-5.621573752676687
 10
24.579587099114484
 20
-5.030994307388105
 10
24.532165296531748
 20
-4.487395365034893
 10
24.402659049709587
 20
-4.154083087574165
 10
24.292802423473717
 20
-3.9699877916087383
 10
24.215101357697094
 20
-3.8621532417824986
 10
24.16013658001993
 20
-3.7917110098812197
 10
24.118694018574782
 20
-3.7396202542483516
 10
24.08461710477718
 20
-3.6960291616482426
 10
24.054174760363296
 20
-3.6554161072200637
 10
24.025241471375058
 20
-3.6144532328503427
 10
23.996723047038685
 20
-3.5710258677817697
 10
23.968190506886067
 20
-3.523754947407479
 10
23.939647130972396
 20
-3.4717498457834335
 10
23.91137609342194
 20
-3.4144724132467434
 10
23.88383687229054
 20
-3.3516571439823046
 10
23.857591823592383
 20
-3.283260647482748
 10
23.83325203185906
 20
-3.2094267280816986
 10
23.811436002729227
 20
-3.130459800283254
 10
23.79273734712451
 20
-3.046802663249587
 10
23.777699127156463
 20
-2.959016424698775
 10
23.76679344246009
 20
-2.8677613510206266
 10
23.76040538580457
 20
-2.77377799211078
 10
23.758820833187144
 20
-2.6778682717105364
 10
23.76221774034884
 20
-2.580876444314037
 10
23.770660745085234
 20
-2.4836699506406688
 10
23.784098954030153
 20
-2.3871202844005444
 10
23.802366844098305
 20
-2.292084029869483
 10
23.825188246900606
 20
-2.199384251479425
 10
23.852183420841847
 20
-2.1097924173921703
 10
23.88287926150696
 20
-2.0240110195398677
 10
23.916722769404167
 20
-1.94265701014487
 10
23.953098002840566
 20
-1.8662461021098844
 10
23.991346919138728
 20
-1.7951778637092062
 10
24.030794791825514
 20
-1.7297213501870385
 10
24.070781355225026
 20
-1.670000706562395
 10
24.11069959215434
 20
-1.6159796525004775
 10
24.150045359316827
 20
-1.5674428355456076
 10
24.188483226939116
 20
-1.52397033456412
 10
24.22593771433671
 20
-1.4848983075711808
 10
24.2627258875547
 20
-1.4492521240830871
 10
24.29975960312704
 20
-1.415624141264675
 10
24.33886814799165
 20
-1.3819363343842892
 10
24.383331555152807
 20
-1.3449516635886936
 10
24.438772771556494
 20
-1.2992049457457115
 10
24.514565034583867
 20
-1.23451532395629
 10
24.625331212728327
 20
-1.1299486984681881
 10
24.78779008916671
 20
-0.9400191113561477
 10
24.98883436790461
 20
-0.5788765391104224
 10
25.100000000000005
 20
1.0828018044034618e-13
  0
CIRCLE
  5
32
330
17
100
AcDbEntity
  8
0
100
AcDbCircle
 10
23.6
 20
0.0
 30
0.0
 40
1.5
  0
CIRCLE
  5
33
330
17
100
AcDbEntity
  8
0
100
AcDbCircle
 10
23.062272781331995
 20
4.9443201248535535
 30
0.0
 40
1.5
  0
CIRCLE
  5
34
330
17
100
AcDbEntity
  8
0
100
AcDbCircle
 10
21.474234652432013
 20
9.657449335886085
 30
0.0
 40
1.5
  0
CIRCLE
  5
35
330
17
100
AcDbEntity
  8
0
100
AcDbCircle
 10
18.91014051122981
 20
13.9190069494566
 30
0.0
 40
1.5
  0
CIRCLE
  5
36
330
17
100
AcDbEntity
  8
0
100
AcDbCircle
 10
15.489884549982033
 20
17.529727267935638
 30
0.0
 40
1.5
  0
CIRCLE
  5
37
330
17
100
AcDbEntity
  8
0
100
AcDbCircle
 10
11.373394136095174
 20
20.32077702225853
 30
0.0
 40
1.5
  0
CIRCLE
  5
38
330
17
100
AcDbEntity
  8
0
100
AcDbCircle
 10
6.753151786172077
 20
22.161649827942128
 30
0.0
 40
1.5
  0
CIRCLE
  5
39
330
17
100
AcDbEntity
  8
0
100
AcDbCircle
 10
1.845194897464605
 20
22.96626851857585
 30
0.0
 40
1.5
  0
CIRCLE
  5
3A
330
17
100
AcDbEntity
  8
0
100
AcDbCircle
 10
-3.1209859207135886
 20
22.697010018455103
 30
0.0
 40
1.5
  0
CIRCLE
  5
3B
330
17
100
AcDbEntity
  8
0
100
AcDbCircle
 10
-7.913177572818032
 20
21.3664645557862
 30
0.0
 40
1.5
  0
CIRCLE
  5
3C
330
17
100
AcDbEntity
  8
0
100
AcDbCircle
 10
-12.307302503334792
 20
19.036846957608482
 30
0.0
 40
1.5
  0
CIRCLE
  5
3D
330
17
100
AcDbEntity
  8
0
100
AcDbCircle
 10
-16.09789631423201
 20
15.817087553628737
 30
0.0
 40
1.5
  0
CIRCLE
  5
3E
330
17
100
AcDbEntity
  8
0
100
AcDbCircle
 10
-19.10771505185455
 20
11.857738715071497
 30
0.0
 40
1.5
  0
CIRCLE
  5
3F
330
17
100
AcDbEntity
  8
0
100
AcDbCircle
 10
-21.196022937204454
 20
7.343935193127535
 30
0.0
 40
1.5
  0
CIRCLE
  5
40
330
17
100
AcDbEntity
  8
0
100
AcDbCircle
 10
-22.26517301455027
 20
2.486737423750664
 30
0.0
 40
1.5
  0
CIRCLE
  5
41
330
17
100
AcDbEntity
  8
0
100
AcDbCircle
 10
-22.26517301455027
 20
-2.4867374237506588
 30
0.0
 40
1.5
  0
CIRCLE
  5
42
330
17
100
AcDbEntity
  8
0
100
AcDbCircle
 10
-21.196022937204454
 20
-7.343935193127539
 30
0.0
 40
1.5
  0
CIRCLE
  5
43
330
17
100
AcDbEntity
  8
0
100
AcDbCircle
 10
-19.107715051854548
 20
-11.857738715071502
 30
0.0
 40
1.5
  0
CIRCLE
  5
44
330
17
100
AcDbEntity
  8
0
100
AcDbCircle
 10
-16.097896314232006
 20
-15.817087553628738
 30
0.0
 40
1.5
  0
CIRCLE
  5
45
330
17
100
AcDbEntity
  8
0
100
AcDbCircle
 10
-12.307302503334798
 20
-19.036846957608482
 30
0.0
 40
1.5
  0
CIRCLE
  5
46
330
17
100
AcDbEntity
  8
0
100
AcDbCircle
 10
-7.913177572818032
 20
-21.3664645557862
 30
0.0
 40
1.5
  0
CIRCLE
  5
47
330
17
100
AcDbEntity
  8
0
100
AcDbCircle
 10
-3.1209859207135895
 20
-22.697010018455103
 30
0.0
 40
1.5
  0
CIRCLE
  5
48
330
17
100
AcDbEntity
  8
0
100
AcDbCircle
 10
1.8451948974646042
 20
-22.96626851857585
 30
0.0
 40
1.5
  0
CIRCLE
  5
49
330
17
100
AcDbEntity
  8
0
100
AcDbCircle
 10
6.753151786172082
 20
-22.161649827942128
 30
0.0
 40
1.5
  0
CIRCLE
  5
4A
330
17
100
AcDbEntity
  8
0
100
AcDbCircle
 10
11.373394136095177
 20
-20.320777022258525
 30
0.0
 40
1.5
  0
CIRCLE
  5
4B
330
17
100
AcDbEntity
  8
0
100
AcDbCircle
 10
15.489884549982042
 20
-17.529727267935634
 30
0.0
 40
1.5
  0
CIRCLE
  5
4C
330
17
100
AcDbEntity
  8
0
100
AcDbCircle
 10
18.910140511229812
 20
-13.919006949456593
 30
0.0
 40
1.5
  0
CIRCLE
  5
4D
330
17
100
AcDbEntity
  8
0
100
AcDbCircle
 10
21.47423465243201
 20
-9.657449335886094
 30
0.0
 40
1.5
  0
CIRCLE
  5
4E
330
17
100
AcDbEntity
  8
0
100
AcDbCircle
 10
23.062272781331995
 20
-4.944320124853561
 30
0.0
 40
1.5
  0
CIRCLE
  5
4F
330
17
100
AcDbEntity
  8
0
100
AcDbCircle
 10
0.0
 20
0.0
 30
0.0
 40
2.5
  0
CIRCLE
  5
50
330
17
100
AcDbEntity
  8
0
100
AcDbCircle
 10
1.2
 20
0.0
 30
0.0
 40
7.5
  0
ENDSEC
  0
SECTION
  2
OBJECTS
  0
DICTIONARY
  5
A
330
0
100
AcDbDictionary
281
1
  3
ACAD_COLOR
350
B
  3
ACAD_GROUP
350
C
  3
ACAD_LAYOUT
350
D
  3
ACAD_MATERIAL
350
E
  3
ACAD_MLEADERSTYLE
350
F
  3
ACAD_MLINESTYLE
350
10
  3
ACAD_PLOTSETTINGS
350
11
  3
ACAD_PLOTSTYLENAME
350
12
  3
ACAD_SCALELIST
350
14
  3
ACAD_TABLESTYLE
350
15
  3
ACAD_VISUALSTYLE
350
16
  3
EZDXF_META
350
2D
  0
DICTIONARY
  5
B
330
A
100
AcDbDictionary
281
1
  0
DICTIONARY
  5
C
330
A
100
AcDbDictionary
281
1
  0
DICTIONARY
  5
D
330
A
100
AcDbDictionary
281
1
  3
Model
350
1A
  3
Layout1
350
1E
  0
DICTIONARY
  5
E
330
A
100
AcDbDictionary
281
1
  3
ByBlock
350
1F
  3
ByLayer
350
20
  3
Global
350
21
  0
DICTIONARY
  5
F
330
A
100
AcDbDictionary
281
1
  3
Standard
350
2C
  0
DICTIONARY
  5
10
330
A
100
AcDbDictionary
281
1
  3
Standard
350
22
  0
DICTIONARY
  5
11
330
A
100
AcDbDictionary
281
1
  0
ACDBDICTIONARYWDFLT
  5
12
330
A
100
AcDbDictionary
281
1
  3
Normal
350
13
100
AcDbDictionaryWithDefault
340
13
  0
ACDBPLACEHOLDER
  5
13
330
12
  0
DICTIONARY
  5
14
330
A
100
AcDbDictionary
281
1
  0
DICTIONARY
  5
15
330
A
100
AcDbDictionary
281
1
  0
DICTIONARY
  5
16
330
A
100
AcDbDictionary
281
1
  0
LAYOUT
  5
1A
330
D
100
AcDbPlotSettings
  1

  4
A3
  6

 40
7.5
 41
20.0
 42
7.5
 43
20.0
 44
420.0
 45
297.0
 46
0.0
 47
0.0
 48
0.0
 49
0.0
140
0.0
141
0.0
142
1.0
143
1.0
 70
1024
 72
1
 73
0
 74
5
  7

 75
16
 76
0
 77
2
 78
300
147
1.0
148
0.0
149
0.0
100
AcDbLayout
  1
Model
 70
1
 71
0
 10
0.0
 20
0.0
 11
420.0
 21
297.0
 12
0.0
 22
0.0
 32
0.0
 14
1e+20
 24
1e+20
 34
1e+20
 15
-1e+20
 25
-1e+20
 35
-1e+20
146
0.0
 13
0.0
 23
0.0
 33
0.0
 16
1.0
 26
0.0
 36
0.0
 17
0.0
 27
1.0
 37
0.0
 76
1
330
17
  0
LAYOUT
  5
1E
330
D
100
AcDbPlotSettings
  1

  4
A3
  6

 40
7.5
 41
20.0
 42
7.5
 43
20.0
 44
420.0
 45
297.0
 46
0.0
 47
0.0
 48
0.0
 49
0.0
140
0.0
141
0.0
142
1.0
143
1.0
 70
0
 72
1
 73
0
 74
5
  7

 75
16
 76
0
 77
2
 78
300
147
1.0
148
0.0
149
0.0
100
AcDbLayout
  1
Layout1
 70
1
 71
1
 10
0.0
 20
0.0
 11
420.0
 21
297.0
 12
0.0
 22
0.0
 32
0.0
 14
1e+20
 24
1e+20
 34
1e+20
 15
-1e+20
 25
-1e+20
 35
-1e+20
146
0.0
 13
0.0
 23
0.0
 33
0.0
 16
1.0
 26
0.0
 36
0.0
 17
0.0
 27
1.0
 37
0.0
 76
1
330
1B
  0
MATERIAL
  5
1F
102
{ACAD_REACTORS
330
E
102
}
330
E
100
AcDbMaterial
  1
ByBlock
  2

 70
0
 40
1.0
 71
1
 41
1.0
 91
-1023410177
 42
1.0
 72
1
  3

 73
1
 74
1
 75
1
 44
0.5
 73
0
 45
1.0
 46
1.0
 77
1
  4

 78
1
 79
1
170
1
 48
1.0
171
1
  6

172
1
173
1
174
1
140
1.0
141
1.0
175
1
  7

176
1
177
1
178
1
143
1.0
179
1
  8

270
1
271
1
272
1
145
1.0
146
1.0
273
1
  9

274
1
275
1
276
1
 42
1.0
 72
1
  3

 73
1
 74
1
 75
1
 94
63
  0
MATERIAL
  5
20
102
{ACAD_REACTORS
330
E
102
}
330
E
100
AcDbMaterial
  1
ByLayer
  2

 70
0
 40
1.0
 71
1
 41
1.0
 91
-1023410177
 42
1.0
 72
1
  3

 73
1
 74
1
 75
1
 44
0.5
 73
0
 45
1.0
 46
1.0
 77
1
  4

 78
1
 79
1
170
1
 48
1.0
171
1
  6

172
1
173
1
174
1
140
1.0
141
1.0
175
1
  7

176
1
177
1
178
1
143
1.0
179
1
  8

270
1
271
1
272
1
145
1.0
146
1.0
273
1
  9

274
1
275
1
276
1
 42
1.0
 72
1
  3

 73
1
 74
1
 75
1
 94
63
  0
MATERIAL
  5
21
102
{ACAD_REACTORS
330
E
102
}
330
E
100
AcDbMaterial
  1
Global
  2

 70
0
 40
1.0
 71
1
 41
1.0
 91
-1023410177
 42
1.0
 72
1
  3

 73
1
 74
1
 75
1
 44
0.5
 73
0
 45
1.0
 46
1.0
 77
1
  4

 78
1
 79
1
170
1
 48
1.0
171
1
  6

172
1
173
1
174
1
140
1.0
141
1.0
175
1
  7

176
1
177
1
178
1
143
1.0
179
1
  8

270
1
271
1
272
1
145
1.0
146
1.0
273
1
  9

274
1
275
1
276
1
 42
1.0
 72
1
  3

 73
1
 74
1
 75
1
 94
63
  0
MLINESTYLE
  5
22
102
{ACAD_REACTORS
330
10
102
}
330
10
100
AcDbMlineStyle
  2
Standard
 70
0
  3

 62
256
 51
90.0
 52
90.0
 71
2
 49
0.5
 62
256
  6
BYLAYER
 49
-0.5
 62
256
  6
BYLAYER
  0
MLEADERSTYLE
  5
2C
102
{ACAD_REACTORS
330
F
102
}
330
F
100
AcDbMLeaderStyle
179
2
170
2
171
1
172
0
 90
2
 40
0.0
 41
0.0
173
1
 91
-1056964608
 92
-2
290
1
 42
2.0
291
1
 43
8.0
  3
Standard
 44
4.0
300

342
29
174
1
175
1
176
0
178
1
 93
-1056964608
 45
4.0
292
0
297
0
 46
4.0
 94
-1056964608
 47
1.0
 49
1.0
140
1.0
294
1
141
0.0
177
0
142
1.0
295
0
296
0
143
3.75
271
0
272
9
273
9
  0
DICTIONARY
  5
2D
330
A
100
AcDbDictionary
280
1
281
1
  3
CREATED_BY_EZDXF
350
2E
  3
WRITTEN_BY_EZDXF
350
53
  0
DICTIONARYVAR
  5
2E
330
2D
100
DictionaryVariables
280
0
  1
1.4.4 @ 2026-06-06T09:11:00.779739+00:00
  0
DICTIONARYVAR
  5
53
330
2D
100
DictionaryVariables
280
0
  1
1.4.4 @ 2026-06-06T09:11:00.788942+00:00
  0
ENDSEC
  0
EOF
